<svg width="100" height="118" viewBox="0 0 100 118" fill="none" xmlns="http://www.w3.org/2000/svg">
<path d="M78.3488 21.3504C78.3506 21.3758 78.3506 21.4012 78.3488 21.4266L46.4247 16.4803V16.4006C46.6073 15.3495 46.9042 14.3192 47.3105 13.326L70.8967 17.0072C70.756 14.1286 69.7619 11.3458 68.0283 8.9776C66.2947 6.60939 63.8918 4.75157 61.0947 3.61698C62.3984 3.52092 63.7096 3.57329 65.0001 3.77296C65.9803 3.92175 66.9444 4.15377 67.8807 4.46621C69.7634 6.13742 71.2723 8.14979 72.3179 10.3839C73.3635 12.618 73.9245 15.0283 73.9676 17.4716L78.5501 18.1649C78.6001 19.2305 78.5326 20.2981 78.3488 21.3504Z" fill="#FF8900"/>
<path d="M82.1355 18.148C82.155 19.2463 82.0682 20.3439 81.876 21.4276L78.5443 20.919C78.5461 20.8933 78.5461 20.8675 78.5443 20.8418C79.1787 17.2698 78.4499 13.6033 76.4847 10.4808C74.5196 7.35834 71.4426 4.97761 67.7895 3.75316C66.8276 3.437 65.8371 3.20222 64.8301 3.05166C60.4849 2.39222 56.0367 3.36765 52.4616 5.76389C48.8866 8.16013 46.4768 11.7814 45.761 15.8331V15.9137L42.8542 15.4718C43.0487 14.3825 43.3444 13.311 43.7379 12.2694C45.0564 8.81743 47.4459 5.80923 50.6025 3.62754C53.7591 1.44585 57.5401 0.189262 61.4645 0.017648C62.8379 -0.0377779 64.2138 0.037432 65.5709 0.242124C70.1427 0.945437 74.3049 3.12298 77.332 6.39517C80.359 9.66737 82.059 13.8267 82.1355 18.148Z" fill="#FF8900"/>
<path d="M39.008 10.9013L43.7221 11.5463C43.345 12.4371 43.0616 13.3534 42.8752 14.2851L24.999 11.8492L27.8643 9.38044L35.9806 10.4904C37.4696 7.00806 40.3798 4.07122 44.2039 2.19197C48.028 0.312716 52.5232 -0.389716 56.9058 0.207146C58.2066 0.384452 59.482 0.672955 60.7117 1.06808C58.3191 1.15754 55.9691 1.62693 53.7883 2.45098C50.5905 2.4631 47.4711 3.27542 44.8353 4.78241C42.1995 6.2894 40.1691 8.42138 39.008 10.9013Z" fill="#FF8900"/>
<path d="M99.9952 34.7465C100.048 36.0567 99.6998 37.3458 99.013 38.3806L96.7618 115.188L91.9007 114.372L85.3246 117.852L85.6988 113.332L91.8102 39.2443C91.2013 38.6196 90.7279 37.8335 90.4295 36.9512C90.131 36.0689 90.016 35.1158 90.0941 34.1709C90.1721 33.2261 90.4409 32.3166 90.8782 31.518C91.3155 30.7194 91.9086 30.0547 92.6085 29.5789L93.1323 23.4012L82.1442 21.2786C82.3035 20.1479 82.3755 19.0026 82.3593 17.8567L99.5088 21.1505L99.197 31.3978C99.7288 32.4023 100.006 33.5639 99.9952 34.7465Z" fill="#FF8900"/>
<path d="M32.007 38.9343V39.2842C31.0805 44.7241 30.2821 50.2339 29.6117 55.8138C28.9414 61.3936 28.3554 66.5977 27.8537 71.426C26.6555 70.6086 25.5698 69.5905 24.6322 68.4053C23.5675 67.0548 22.7613 65.4621 22.2657 63.7304C21.6598 61.5611 21.3804 59.2886 21.4395 57.011C21.4545 54.4102 21.8889 51.3747 22.7429 47.9045C23.3707 46.1002 24.0815 44.3356 24.8724 42.6181C25.4361 41.3934 26.0783 40.2187 26.7937 39.1037C27.3039 38.301 27.9036 37.5789 28.5774 36.956C29.111 36.4784 29.6927 36.0764 30.3098 35.7588C30.6694 35.6652 31.0461 35.7172 31.3762 35.9061C31.6617 36.1459 31.8835 36.4725 32.0166 36.8492C32.1917 37.2913 32.1885 37.9863 32.007 38.9343Z" fill="#FF8900"/>
<path d="M92.2642 29.1779L92.8529 22.9719L80.2794 20.8396L77.1182 20.3064L46.0268 15.06L43.2688 14.5968L25.5717 11.6114L20.2518 10.7144L4.6562 82.3554L1.59488 96.4291L0 103.705L4.76325 104.507L17.2155 106.609L83.9187 117.852L84.3469 113.312L91.3401 38.8877C90.6432 38.2601 90.1016 37.4704 89.7601 36.584C89.4186 35.6977 89.287 34.7402 89.3763 33.791C89.4656 32.8418 89.7732 31.9282 90.2735 31.126C90.7739 30.3237 91.4526 29.6559 92.2535 29.1779H92.2642ZM87.2262 46.2371C86.7382 50.1311 85.9556 53.9799 84.8856 57.7483C83.7772 61.7704 82.551 65.7423 81.207 69.664C79.8631 73.5856 78.4205 77.2621 76.8791 80.6936C75.439 83.9361 73.8151 87.0887 72.0159 90.1349C70.5183 92.7127 68.7276 95.0973 66.6818 97.238C65.0337 98.9859 63.0671 100.381 60.8946 101.345C58.9504 102.189 56.7837 102.319 54.7577 101.712C53.8087 101.651 52.9091 101.255 52.2101 100.591C52.1135 100.55 52.0146 100.514 51.914 100.484C51.8304 100.459 51.7501 100.423 51.6749 100.378C50.7213 99.5722 49.977 98.5349 49.5092 97.3593C48.9562 96.0261 48.5678 94.6267 48.3532 93.1938C46.0197 96.4218 43.5792 98.8434 41.0317 100.459C39.8649 101.24 38.5487 101.755 37.1723 101.966C35.7958 102.178 34.3912 102.083 33.0537 101.687C32.5979 101.636 32.1498 101.529 31.7193 101.367C31.2586 101.201 30.842 100.926 30.5026 100.565C30.4295 100.518 30.3502 100.482 30.2671 100.459C30.1835 100.433 30.1032 100.397 30.0281 100.352C28.8435 99.4145 27.9693 98.0358 27.4199 96.2122C26.8527 94.3285 26.4936 92.3848 26.3495 90.418C26.1934 88.4231 26.1744 86.4193 26.2924 84.4216C26.4137 82.4546 26.5493 80.837 26.7098 79.5759C24.6183 79.8757 22.4872 79.6344 20.5087 78.8737C18.6323 78.1299 16.9751 76.8974 15.6991 75.2964C14.2846 73.4835 13.2178 71.4098 12.5557 69.186C11.7513 66.5269 11.3411 63.7579 11.339 60.9726C11.2996 58.3686 11.5486 55.7684 12.0812 53.2225C12.5833 50.7773 13.2888 48.3811 14.1898 46.0606C14.9982 43.965 15.9807 41.9452 17.1263 40.0237C18.0602 38.4334 19.1429 36.9409 20.3588 35.5678C21.3016 34.6073 22.3342 33.7452 23.4416 32.9942C24.6861 32.1144 26.0186 31.3749 27.4163 30.7883C27.9092 30.5269 28.4253 30.3151 28.9577 30.1559L29.8497 29.9463C31.6333 29.4854 33.4891 29.4016 35.3051 29.7C36.7376 29.943 38.1328 30.3793 39.4546 30.9978C40.7318 31.6335 41.9102 32.4612 42.9513 33.4537C43.1082 33.5971 43.2581 33.7368 43.4008 33.8765C43.5364 34.0183 43.6464 34.1839 43.7255 34.3655C43.9328 34.7045 44.0825 35.0776 44.1679 35.4685C44.1789 35.5675 44.1657 35.6678 44.1295 35.7602C44.0934 35.8527 44.0355 35.9343 43.961 35.9979C43.7855 36.1491 43.5848 36.2662 43.3687 36.3435C43.1399 36.4327 42.9363 36.5793 42.7764 36.77C42.6587 36.9097 42.4482 37.5898 42.152 38.8031C41.8559 40.0164 41.4991 41.612 41.0816 43.5826C40.6642 45.5532 40.2146 47.7849 39.7187 50.2849C39.2227 52.785 38.7161 55.4321 38.2023 58.1821C37.6885 60.9322 37.1961 63.6969 36.7216 66.5021C36.247 69.3073 35.8117 71.9397 35.4157 74.4692C35.7332 74.5133 36.0187 74.5464 36.2791 74.5721C36.5396 74.5979 36.7644 74.6089 36.9606 74.6089H37.5565C37.1176 74.8883 36.7109 75.1677 36.3362 75.4508C35.9616 75.7339 35.5762 75.9876 35.1838 76.2229C35.1422 76.4084 35.1112 76.5962 35.091 76.7854C35.0732 76.9735 35.0434 77.1602 35.0018 77.3442C35.0018 77.5795 34.9626 78.1531 34.8841 79.0612C34.8056 79.9693 34.7235 80.9362 34.6486 81.9399C34.5737 82.9436 34.488 83.8848 34.4095 84.7488C34.331 85.6128 34.2918 86.0944 34.2918 86.1863C34.2088 87.5081 34.2279 88.8346 34.3489 90.1533C34.4678 91.2514 34.7461 92.059 35.1838 92.5761C36.0115 93.51 36.9035 93.8151 37.849 93.4879C38.7946 93.1607 39.7936 92.3408 40.8426 91.032C42.0786 89.4269 43.1623 87.7033 44.0787 85.8848C45.1848 83.7573 46.2707 81.3823 47.3363 78.7597C48.0903 75.9533 48.8622 72.8417 49.6519 69.425C50.3251 66.4837 51.0957 63.0327 51.964 59.0718C52.8322 55.111 53.6825 50.7947 54.515 46.1231C55.7678 45.7552 57.0847 45.6824 58.3685 45.9099C59.3931 46.1674 60.3274 46.7149 61.0658 47.4908C61.8793 48.3119 62.3051 49.7506 62.3432 51.807C62.3451 54.0058 62.0972 56.1972 61.6046 58.3365C61.067 60.8145 60.4629 63.3759 59.7921 66.0205C59.1213 68.6652 58.4577 71.2645 57.8012 73.8184C57.1867 76.0746 56.7242 78.3718 56.4168 80.6936L56.2419 83.0098C56.2419 83.8076 56.2205 84.44 56.1849 84.9069C56.1627 85.2633 56.1017 85.616 56.0029 85.9584V86.1679C55.9219 87.4894 55.9326 88.8151 56.035 90.1349C56.1301 91.233 56.3966 92.0406 56.8342 92.5578C57.6263 93.4475 58.4862 93.7514 59.4139 93.4695C60.3415 93.1877 61.3108 92.4524 62.3218 91.2636C63.5103 89.7871 64.5436 88.185 65.4045 86.4841C66.4511 84.4914 67.4989 82.2573 68.5479 79.7818C69.5969 77.3063 70.634 74.6506 71.6591 71.8147C72.6915 68.9838 73.6608 66.1173 74.567 63.2153C75.5946 59.9383 76.4343 56.9431 77.086 54.2299C77.7378 51.5166 78.2325 49.0484 78.5703 46.8253C78.8848 44.864 79.0979 42.887 79.209 40.9024C79.2875 39.1695 79.3077 37.6254 79.2696 36.27C79.1103 33.1351 78.6155 30.6841 77.7854 28.9169C78.6306 28.2391 79.6532 27.8371 80.7218 27.7625C81.7843 27.6944 82.836 28.016 83.6904 28.6706C84.618 29.3495 85.428 30.4267 86.1201 31.9022C86.8123 33.3778 87.2607 35.303 87.4653 37.6781C87.6719 40.5319 87.5918 43.4002 87.2262 46.2371Z" fill="#FF8900"/>
</svg>
