<svg width="32" height="37" viewBox="0 0 32 37" fill="none" xmlns="http://www.w3.org/2000/svg">
<path d="M31.3153 6.90317L31.5151 4.7968L27.2475 4.07305L26.1746 3.89211L15.6219 2.11143L14.6858 1.9542L8.67924 0.94095L6.87364 0.636475L1.58036 24.9521L0.541317 29.7288L0 32.1983L1.61669 32.4703L5.84308 33.1841L28.4827 37L28.628 35.4589L31.0016 10.1987C30.7651 9.98573 30.5813 9.7177 30.4653 9.41687C30.3494 9.11603 30.3048 8.79107 30.3351 8.4689C30.3654 8.14673 30.4698 7.83665 30.6396 7.56435C30.8094 7.29206 31.0398 7.06541 31.3116 6.90317H31.3153ZM29.6053 12.6932C29.4397 14.0149 29.1741 15.3212 28.8109 16.6002C28.4347 17.9653 28.0185 19.3134 27.5624 20.6445C27.1062 21.9755 26.6166 23.2234 26.0934 24.388C25.6046 25.4886 25.0535 26.5586 24.4428 27.5925C23.9345 28.4674 23.3268 29.2768 22.6324 30.0033C22.073 30.5966 21.4055 31.0702 20.6681 31.3972C20.0083 31.6837 19.2729 31.7277 18.5852 31.522C18.2631 31.5012 17.9578 31.3668 17.7206 31.1414C17.6878 31.1274 17.6542 31.1153 17.6201 31.1052C17.5917 31.0966 17.5644 31.0844 17.5389 31.069C17.2152 30.7956 16.9626 30.4435 16.8038 30.0445C16.6161 29.592 16.4843 29.117 16.4115 28.6307C15.6195 29.7263 14.7912 30.5482 13.9265 31.0965C13.5305 31.3618 13.0838 31.5363 12.6166 31.6082C12.1494 31.6801 11.6727 31.6477 11.2187 31.5132C11.064 31.4962 10.9119 31.4597 10.7658 31.4047C10.6094 31.3484 10.468 31.2553 10.3528 31.1326C10.328 31.1167 10.3011 31.1045 10.2729 31.0965C10.2445 31.0878 10.2173 31.0757 10.1918 31.0603C9.78973 30.7421 9.49303 30.2741 9.30654 29.6552C9.11402 29.0158 8.99215 28.3561 8.94324 27.6886C8.89028 27.0115 8.8838 26.3314 8.92386 25.6533C8.96504 24.9857 9.01105 24.4367 9.06555 24.0087C8.35565 24.1104 7.63234 24.0285 6.96083 23.7703C6.32395 23.5179 5.76149 23.0996 5.3284 22.5562C4.84832 21.9409 4.48625 21.237 4.26151 20.4823C3.98848 19.5797 3.84926 18.6399 3.84856 17.6946C3.83518 16.8107 3.91969 15.9282 4.10045 15.0641C4.27089 14.2342 4.51035 13.4209 4.81615 12.6333C5.09052 11.922 5.42397 11.2365 5.8128 10.5843C6.1298 10.0445 6.49727 9.538 6.90997 9.07193C7.22994 8.74593 7.58041 8.45335 7.95627 8.19844C8.37866 7.89984 8.83094 7.64884 9.30533 7.44973C9.47261 7.36103 9.64781 7.28915 9.82848 7.2351L10.1312 7.16397C10.7366 7.00754 11.3665 6.9791 11.9828 7.08036C12.469 7.16283 12.9426 7.31094 13.3912 7.52086C13.8247 7.73661 14.2247 8.01753 14.578 8.35442C14.6313 8.40309 14.6822 8.4505 14.7306 8.49792C14.7766 8.54604 14.814 8.60225 14.8408 8.66388C14.9112 8.77895 14.962 8.90555 14.991 9.03824C14.9947 9.07185 14.9902 9.10588 14.9779 9.13726C14.9657 9.16863 14.946 9.19636 14.9207 9.21793C14.8612 9.26924 14.7931 9.30898 14.7197 9.33523C14.6421 9.36549 14.573 9.41525 14.5187 9.47998C14.4787 9.5274 14.4073 9.75825 14.3068 10.17C14.2062 10.5818 14.0851 11.1234 13.9435 11.7922C13.8018 12.4611 13.6492 13.2185 13.4809 14.0671C13.3125 14.9156 13.1406 15.8141 12.9662 16.7474C12.7918 17.6808 12.6247 18.6192 12.4636 19.5713C12.3026 20.5234 12.1548 21.4169 12.0204 22.2754C12.1282 22.2904 12.225 22.3016 12.3135 22.3104C12.4019 22.3191 12.4781 22.3228 12.5448 22.3228H12.747C12.598 22.4177 12.46 22.5125 12.3328 22.6086C12.2057 22.7047 12.0749 22.7908 11.9417 22.8706C11.9276 22.9336 11.917 22.9973 11.9102 23.0616C11.9041 23.1254 11.894 23.1888 11.8799 23.2512C11.8799 23.3311 11.8666 23.5258 11.84 23.834C11.8133 24.1422 11.7855 24.4704 11.76 24.811C11.7346 25.1517 11.7055 25.4712 11.6789 25.7644C11.6522 26.0576 11.6389 26.2211 11.6389 26.2523C11.6108 26.7009 11.6172 27.1512 11.6583 27.5987C11.6987 27.9714 11.7931 28.2455 11.9417 28.4211C12.2226 28.738 12.5254 28.8416 12.8463 28.7305C13.1672 28.6195 13.5063 28.3412 13.8623 27.897C14.2819 27.3522 14.6497 26.7672 14.9607 26.15C15.3361 25.4279 15.7047 24.6218 16.0663 23.7317C16.3223 22.7791 16.5842 21.723 16.8523 20.5634C17.0808 19.5651 17.3423 18.3938 17.637 17.0494C17.9317 15.7051 18.2203 14.2401 18.5029 12.6545C18.9281 12.5297 19.375 12.5049 19.8108 12.5821C20.1585 12.6695 20.4756 12.8554 20.7263 13.1187C21.0024 13.3974 21.1469 13.8857 21.1598 14.5837C21.1605 15.33 21.0763 16.0737 20.9091 16.7999C20.7267 17.6409 20.5216 18.5102 20.2939 19.4079C20.0663 20.3055 19.841 21.1877 19.6182 22.0545C19.4097 22.8203 19.2527 23.6 19.1483 24.388L19.089 25.1742C19.089 25.4449 19.0817 25.6596 19.0696 25.8181C19.0621 25.939 19.0414 26.0587 19.0079 26.1749V26.2461C18.9804 26.6946 18.984 27.1445 19.0188 27.5925C19.0511 27.9652 19.1415 28.2393 19.29 28.4148C19.5589 28.7168 19.8507 28.82 20.1656 28.7243C20.4804 28.6286 20.8094 28.3791 21.1525 27.9756C21.5559 27.4744 21.9067 26.9307 22.1988 26.3534C22.5541 25.677 22.9097 24.9188 23.2657 24.0786C23.6218 23.2383 23.9738 22.337 24.3217 21.3745C24.6721 20.4136 25.0011 19.4407 25.3087 18.4558C25.6575 17.3435 25.9425 16.3269 26.1637 15.406C26.3849 14.4851 26.5528 13.6474 26.6674 12.8928C26.7742 12.2272 26.8465 11.5561 26.8842 10.8826C26.9109 10.2944 26.9177 9.77031 26.9048 9.31027C26.8507 8.24627 26.6828 7.41437 26.401 6.81457C26.6879 6.58453 27.035 6.44809 27.3977 6.42275C27.7583 6.39963 28.1153 6.50882 28.4052 6.73097C28.7201 6.9614 28.995 7.32702 29.2299 7.82782C29.4648 8.32863 29.617 8.98209 29.6865 9.7882C29.7566 10.7568 29.7294 11.7303 29.6053 12.6932Z" fill="#FF8900"/>
</svg>
