<svg width="70" height="70" viewBox="0 0 70 70" fill="none" xmlns="http://www.w3.org/2000/svg">
<rect width="70" height="70" rx="5" fill="url(#paint0_linear_0_308)"/>
<path d="M43.8802 22.7801C43.8808 22.7882 43.8808 22.7963 43.8802 22.8043L33.7427 21.2336V21.2083C33.8007 20.8745 33.8949 20.5474 34.024 20.232L41.5138 21.4009C41.4691 20.4868 41.1534 19.6032 40.6029 18.8511C40.0524 18.0991 39.2894 17.5091 38.4012 17.1489C38.8151 17.1183 39.2315 17.135 39.6413 17.1984C39.9526 17.2456 40.2587 17.3193 40.5561 17.4185C41.1539 17.9492 41.6331 18.5883 41.9651 19.2977C42.2971 20.0071 42.4753 20.7725 42.4889 21.5484L43.9441 21.7686C43.96 22.1069 43.9386 22.4459 43.8802 22.7801Z" fill="#FF8900"/>
<path d="M45.0827 21.7629C45.0889 22.1117 45.0613 22.4602 45.0003 22.8044L43.9423 22.6428C43.9429 22.6347 43.9429 22.6265 43.9423 22.6183C44.1437 21.484 43.9123 20.3197 43.2883 19.3282C42.6642 18.3366 41.6871 17.5806 40.5271 17.1918C40.2216 17.0914 39.9071 17.0169 39.5873 16.9691C38.2075 16.7597 36.795 17.0694 35.6597 17.8303C34.5245 18.5913 33.7592 19.7412 33.5319 21.0278V21.0534L32.6089 20.9131C32.6706 20.5672 32.7645 20.2269 32.8895 19.8962C33.3082 18.8 34.067 17.8447 35.0693 17.1519C36.0717 16.4591 37.2724 16.0601 38.5186 16.0056C38.9547 15.988 39.3916 16.0119 39.8226 16.0769C41.2744 16.3002 42.5961 16.9917 43.5573 18.0308C44.5186 19.0699 45.0584 20.3907 45.0827 21.7629Z" fill="#FF8900"/>
<path d="M31.7795 18.8006C31.5539 19.1091 31.7712 19.5143 32.1498 19.5661L32.3582 19.5946C32.6231 19.6309 32.7799 19.9111 32.7052 20.1678C32.6453 20.3736 32.4493 20.5137 32.2369 20.4847L27.9273 19.8975C27.5433 19.8452 27.4009 19.3641 27.6945 19.1111C27.7921 19.027 27.9213 18.9888 28.049 19.0062L28.9149 19.1247C29.8071 19.2467 30.6455 18.7264 31.2404 18.0503C31.7192 17.5062 32.3287 17.044 33.0368 16.6961C34.2511 16.0993 35.6786 15.8762 37.0703 16.0658C37.3123 16.0988 37.2881 16.4416 37.0493 16.4931C36.7407 16.5597 36.4383 16.6469 36.1453 16.7541C36.1022 16.7699 36.0568 16.7783 36.0109 16.779C35.0198 16.794 34.0552 17.051 33.2373 17.5187C32.6453 17.8571 32.1495 18.2948 31.7795 18.8006Z" fill="#FF8900"/>
<path d="M50.7535 27.0338C50.7703 27.4498 50.6597 27.8592 50.4416 28.1878L49.7267 52.578L48.183 52.3188L46.0948 53.424L46.2136 51.9888L48.1543 28.4621C47.9609 28.2637 47.8106 28.0141 47.7158 27.7339C47.6211 27.4537 47.5846 27.1511 47.6093 26.851C47.6341 26.551 47.7195 26.2622 47.8583 26.0086C47.9972 25.755 48.1855 25.5439 48.4078 25.3928L48.5741 23.4311L45.0848 22.757C45.1354 22.398 45.1583 22.0343 45.1532 21.6704L50.599 22.7164L50.5 25.9704C50.6689 26.2894 50.7568 26.6582 50.7535 27.0338Z" fill="#FF8900"/>
<path d="M29.1635 28.3634V28.4745C28.8693 30.2019 28.6157 31.9516 28.4029 33.7235C28.19 35.4954 28.0039 37.1479 27.8446 38.6812C27.4641 38.4216 27.1193 38.0983 26.8216 37.7219C26.4835 37.2931 26.2275 36.7873 26.0701 36.2374C25.8777 35.5485 25.789 34.8269 25.8078 34.1037C25.8125 33.2778 25.9505 32.3138 26.2216 31.2119C26.421 30.6389 26.6467 30.0786 26.8979 29.5332C27.0769 29.1443 27.2808 28.7713 27.508 28.4172C27.67 28.1623 27.8604 27.933 28.0744 27.7352C28.2438 27.5835 28.4286 27.4559 28.6245 27.355C28.7387 27.3253 28.8583 27.3418 28.9632 27.4018C29.0538 27.4779 29.1242 27.5816 29.1665 27.7013C29.2221 27.8416 29.2211 28.0623 29.1635 28.3634Z" fill="#FF8900"/>
<path d="M48.296 25.2652C48.2974 25.2652 48.2987 25.2641 48.2988 25.2626L48.3911 24.2903C48.4443 23.7289 48.0553 23.2215 47.4993 23.1273L44.4928 22.6174L43.4889 22.4481L33.6159 20.7821L32.74 20.635L27.1203 19.687C26.1747 19.5275 25.2706 20.139 25.0666 21.0761L20.4786 42.1518L19.5065 46.6209L19.3284 47.4331C19.1497 48.2484 19.6895 49.0474 20.5126 49.1859L24.4668 49.8537L44.2204 53.1832C44.9917 53.3132 45.711 52.7607 45.7844 51.982L47.9214 29.2399C47.9741 28.6791 47.7059 28.1426 47.5034 27.617C47.395 27.3356 47.3532 27.0315 47.3815 26.7301C47.4099 26.4287 47.5076 26.1386 47.6664 25.8838C47.8252 25.6293 48.0405 25.4174 48.2945 25.2656C48.2949 25.2654 48.2955 25.2652 48.296 25.2652ZM46.6988 30.6824C46.5438 31.9189 46.2953 33.1411 45.9555 34.3378C45.6035 35.615 45.2141 36.8763 44.7874 38.1216C44.3606 39.3669 43.9025 40.5344 43.413 41.6241C42.9557 42.6537 42.4401 43.6548 41.8687 44.6222C41.3932 45.4408 40.8245 46.198 40.1749 46.8778C39.6515 47.4328 39.027 47.8759 38.3371 48.1818C37.8273 48.4032 37.2693 48.4699 36.728 48.3779C36.4993 48.3391 36.2663 48.3058 36.0474 48.2292C35.9057 48.1795 35.7727 48.1051 35.6544 48.0086C35.6032 47.9668 35.5488 47.9274 35.4853 47.9086C35.4323 47.8925 35.3878 47.8572 35.3467 47.8199C35.0739 47.5726 34.8598 47.2634 34.7217 46.9163C34.5289 46.4516 33.8283 46.2913 33.4865 46.6604C33.0138 47.171 32.5282 47.5844 32.0296 47.9005C31.6591 48.1487 31.2412 48.312 30.8041 48.3793C30.4849 48.4284 30.1609 48.4255 29.844 48.3714C29.6097 48.3313 29.3736 48.2888 29.1476 48.2152C29.1224 48.207 29.0973 48.1982 29.0725 48.1888C28.9518 48.1454 28.8406 48.0785 28.7449 47.992C28.7043 47.9553 28.664 47.9155 28.6113 47.9005C28.5848 47.8924 28.5593 47.881 28.5354 47.8666C28.1593 47.5689 27.8817 47.1311 27.7072 46.552C27.5271 45.9538 27.4131 45.3366 27.3673 44.7121C27.3177 44.0786 27.3117 43.4423 27.3492 42.8079C27.397 42.0323 26.702 41.3786 25.9492 41.1856C25.8016 41.1478 25.6558 41.1012 25.5126 41.0462C24.9167 40.81 24.3905 40.4186 23.9853 39.9102C23.5361 39.3345 23.1973 38.676 22.9871 37.9698C22.7316 37.1254 22.6014 36.2461 22.6007 35.3617C22.5882 34.5347 22.6673 33.7091 22.8364 32.9006C22.9959 32.1241 23.2199 31.3632 23.506 30.6263C23.7627 29.9609 24.0747 29.3195 24.4385 28.7093C24.735 28.2043 25.0789 27.7304 25.465 27.2943C25.7643 26.9893 26.0922 26.7156 26.4439 26.4771C26.8391 26.1977 27.2622 25.9629 27.7061 25.7766C27.8626 25.6936 28.0265 25.6263 28.1955 25.5758L28.4788 25.5092C29.0452 25.3629 29.6345 25.3363 30.2112 25.431C30.666 25.5082 31.1091 25.6467 31.5289 25.8431C31.9344 26.045 32.3086 26.3078 32.6392 26.623C32.6891 26.6685 32.7366 26.7129 32.782 26.7573C32.825 26.8023 32.8599 26.8549 32.8851 26.9125C32.9509 27.0202 32.9984 27.1387 33.0256 27.2628C33.029 27.2942 33.0249 27.3261 33.0134 27.3554C33.0019 27.3848 32.9835 27.4107 32.9599 27.4309C32.9041 27.4789 32.8404 27.5161 32.7718 27.5407C32.6991 27.569 32.6345 27.6155 32.5837 27.6761C32.5463 27.7205 32.4795 27.9364 32.3854 28.3217C32.2914 28.707 32.1781 29.2137 32.0455 29.8394C31.9129 30.4652 31.7702 31.1739 31.6127 31.9678C31.4552 32.7617 31.2943 33.6023 31.1312 34.4755C30.968 35.3488 30.8117 36.2268 30.661 37.1176C30.5273 37.908 30.4034 38.6552 30.2893 39.3747C30.2655 39.5246 30.3695 39.6653 30.5205 39.6802C30.6032 39.6884 30.6746 39.6919 30.7369 39.6919C30.792 39.6919 30.8135 39.7647 30.7679 39.7956C30.6876 39.8499 30.6112 39.9043 30.5386 39.9592C30.4689 40.0119 30.398 40.0614 30.3262 40.1083C30.2294 40.1717 30.1555 40.268 30.1432 40.383C30.1319 40.502 30.1144 40.6208 30.1064 40.74C30.1002 40.8326 30.0905 40.9546 30.0775 41.1057C30.0525 41.3941 30.0265 41.7011 30.0027 42.0198C29.9789 42.3386 29.9517 42.6374 29.9268 42.9118C29.9018 43.1862 29.8894 43.3391 29.8894 43.3683C29.863 43.788 29.8691 44.2093 29.9075 44.628C29.9453 44.9767 30.0337 45.2332 30.1726 45.3974C30.4355 45.6939 30.7188 45.7908 31.019 45.6869C31.3192 45.583 31.6365 45.3227 31.9696 44.907C32.3621 44.3973 32.7062 43.85 32.9972 43.2726C33.3485 42.597 33.6933 41.8428 34.0317 41.01C34.2711 40.1188 34.5162 39.1307 34.767 38.0457C34.9808 37.1117 35.2255 36.0158 35.5012 34.7581C35.6999 33.8515 35.8957 32.8863 36.0885 31.8624C36.2287 31.1179 36.789 30.4463 37.535 30.5785C37.8603 30.6602 38.157 30.8341 38.3915 31.0805C38.6498 31.3412 38.785 31.7981 38.7971 32.4511C38.7977 33.1493 38.719 33.8452 38.5626 34.5246C38.3919 35.3115 38.2 36.1248 37.987 36.9646C37.774 37.8044 37.5633 38.6298 37.3548 39.4409C37.1597 40.1573 37.0128 40.8868 36.9152 41.6241L36.8597 42.3596C36.8597 42.6129 36.8529 42.8137 36.8416 42.962C36.8359 43.053 36.8223 43.1432 36.8008 43.2316C36.7904 43.2745 36.7838 43.3183 36.7838 43.3625C36.7581 43.7821 36.7615 44.203 36.794 44.6222C36.8242 44.9709 36.9088 45.2273 37.0478 45.3915C37.2993 45.6741 37.5723 45.7706 37.8669 45.6811C38.1615 45.5916 38.4693 45.3581 38.7903 44.9806C39.1677 44.5117 39.4959 44.003 39.7693 43.4629C40.1016 42.8301 40.4343 42.1206 40.7674 41.3345C41.1005 40.5484 41.4299 39.7051 41.7554 38.8046C42.0832 37.9056 42.391 36.9954 42.6788 36.0738C43.0051 35.0332 43.2718 34.0821 43.4787 33.2205C43.6857 32.3589 43.8428 31.5751 43.9501 30.8692C44.0499 30.2464 44.1176 29.6185 44.1529 28.9883C44.1778 28.4381 44.1842 27.9477 44.1721 27.5173C44.146 27.0035 44.0915 26.5476 44.0087 26.1495C43.8871 25.5652 44.0379 24.8573 44.6333 24.8157C44.9707 24.7941 45.3046 24.8963 45.5759 25.1041C45.8705 25.3197 46.1277 25.6618 46.3475 26.1303C46.5673 26.5989 46.7097 27.2103 46.7747 27.9645C46.8403 28.8707 46.8148 29.7815 46.6988 30.6824Z" fill="#FF8900"/>
<defs>
<linearGradient id="paint0_linear_0_308" x1="35" y1="0" x2="35" y2="70" gradientUnits="userSpaceOnUse">
<stop stop-color="#13152D"/>
<stop offset="1" stop-color="#13152D"/>
</linearGradient>
</defs>
</svg>
