<svg width="34" height="40" viewBox="0 0 34 40" fill="none" xmlns="http://www.w3.org/2000/svg">
<path d="M26.5925 7.24663C26.5931 7.25524 26.5931 7.26389 26.5925 7.2725L15.7571 5.59367V5.56661C15.8191 5.20989 15.9199 4.86018 16.0578 4.52307L24.0631 5.77249C24.0154 4.79549 23.678 3.85099 23.0896 3.0472C22.5012 2.2434 21.6856 1.61284 20.7363 1.22775C21.1788 1.19515 21.6238 1.21292 22.0618 1.2807C22.3945 1.3312 22.7217 1.40995 23.0395 1.51599C23.6785 2.08321 24.1906 2.76623 24.5455 3.5245C24.9004 4.28277 25.0908 5.10084 25.1054 5.93014L26.6608 6.16544C26.6777 6.5271 26.6548 6.88946 26.5925 7.24663Z" fill="#FF8900"/>
<path d="M27.8779 6.1596C27.8845 6.53235 27.8551 6.9049 27.7898 7.27271L26.659 7.10009C26.6596 7.09137 26.6596 7.08262 26.659 7.0739C26.8743 5.86151 26.627 4.61708 25.96 3.55728C25.293 2.49748 24.2486 1.68944 23.0087 1.27386C22.6823 1.16655 22.3461 1.08686 22.0043 1.03576C20.5295 0.811941 19.0197 1.14301 17.8063 1.95631C16.5929 2.76962 15.775 3.99872 15.5321 5.37388V5.40126L14.5455 5.25126C14.6115 4.88153 14.7119 4.51786 14.8454 4.16435C15.2929 2.99271 16.1039 1.9717 17.1753 1.23122C18.2467 0.490732 19.53 0.0642373 20.862 0.00598989C21.3281 -0.0128221 21.7951 0.0127048 22.2557 0.082179C23.8074 0.320889 25.2201 1.05997 26.2475 2.17058C27.275 3.28119 27.8519 4.69289 27.8779 6.1596Z" fill="#FF8900"/>
<path d="M13.2393 3.7L14.8393 3.91891C14.7113 4.22124 14.6151 4.53227 14.5518 4.84847L8.4845 4.02174L9.45698 3.1838L12.2117 3.56052C12.7171 2.37859 13.7049 1.38181 15.0028 0.743973C16.3007 0.106138 17.8264 -0.132273 19.3139 0.0703072C19.7554 0.130486 20.1883 0.228407 20.6057 0.362515C19.7936 0.392878 18.996 0.552195 18.2558 0.831883C17.1705 0.835998 16.1117 1.11171 15.2171 1.62319C14.3225 2.13468 13.6333 2.85829 13.2393 3.7Z" fill="#FF8900"/>
<path d="M33.9394 11.7931C33.9574 12.2378 33.8391 12.6753 33.606 13.0265L32.8419 39.0956L31.192 38.8186L28.9601 39.9999L29.0871 38.4658L31.1613 13.3197C30.9546 13.1076 30.794 12.8408 30.6927 12.5414C30.5914 12.2419 30.5524 11.9184 30.5789 11.5977C30.6053 11.277 30.6966 10.9684 30.845 10.6973C30.9934 10.4263 31.1947 10.2007 31.4323 10.0392L31.6101 7.94241L27.8806 7.22196C27.9347 6.8382 27.9591 6.44948 27.9536 6.06055L33.7743 7.17848L33.6685 10.6565C33.849 10.9974 33.9429 11.3917 33.9394 11.7931Z" fill="#FF8900"/>
<path d="M10.8634 13.215V13.3338C10.5489 15.1801 10.2779 17.0502 10.0504 18.9441C9.82288 20.8379 9.62398 22.6042 9.4537 24.243C9.04702 23.9656 8.67852 23.62 8.3603 23.2177C7.99894 22.7594 7.7253 22.2188 7.5571 21.6311C7.35144 20.8948 7.2566 20.1235 7.27668 19.3504C7.28175 18.4677 7.42921 17.4374 7.71904 16.2596C7.93213 15.6472 8.1734 15.0483 8.44182 14.4654C8.63316 14.0497 8.85114 13.651 9.09394 13.2725C9.26709 13.0001 9.47063 12.755 9.69933 12.5436C9.88045 12.3815 10.0779 12.245 10.2873 12.1372C10.4094 12.1055 10.5372 12.1231 10.6493 12.1873C10.7462 12.2686 10.8214 12.3795 10.8666 12.5073C10.9261 12.6574 10.925 12.8933 10.8634 13.215Z" fill="#FF8900"/>
<path d="M31.3153 9.90317L31.5151 7.7968L27.2475 7.07305L26.1746 6.89211L15.6219 5.11143L14.6858 4.9542L8.67924 3.94095L6.87364 3.63647L1.58036 27.9521L0.541317 32.7288L0 35.1983L1.61669 35.4703L5.84308 36.1841L28.4827 40L28.628 38.4589L31.0016 13.1987C30.7651 12.9857 30.5813 12.7177 30.4653 12.4169C30.3494 12.116 30.3048 11.7911 30.3351 11.4689C30.3654 11.1467 30.4698 10.8366 30.6396 10.5644C30.8094 10.2921 31.0398 10.0654 31.3116 9.90317H31.3153ZM29.6053 15.6932C29.4397 17.0149 29.1741 18.3212 28.8109 19.6002C28.4347 20.9653 28.0185 22.3134 27.5624 23.6445C27.1062 24.9755 26.6166 26.2234 26.0934 27.388C25.6046 28.4886 25.0535 29.5586 24.4428 30.5925C23.9345 31.4674 23.3268 32.2768 22.6324 33.0033C22.073 33.5966 21.4055 34.0702 20.6681 34.3972C20.0083 34.6837 19.2729 34.7277 18.5852 34.522C18.2631 34.5012 17.9578 34.3668 17.7206 34.1414C17.6878 34.1274 17.6542 34.1153 17.6201 34.1052C17.5917 34.0966 17.5644 34.0844 17.5389 34.069C17.2152 33.7956 16.9626 33.4435 16.8038 33.0445C16.6161 32.592 16.4843 32.117 16.4115 31.6307C15.6195 32.7263 14.7912 33.5482 13.9265 34.0965C13.5305 34.3618 13.0838 34.5363 12.6166 34.6082C12.1494 34.6801 11.6727 34.6477 11.2187 34.5132C11.064 34.4962 10.9119 34.4597 10.7658 34.4047C10.6094 34.3484 10.468 34.2553 10.3528 34.1326C10.328 34.1167 10.3011 34.1045 10.2729 34.0965C10.2445 34.0878 10.2173 34.0757 10.1918 34.0603C9.78973 33.7421 9.49303 33.2741 9.30654 32.6552C9.11402 32.0158 8.99215 31.3561 8.94324 30.6886C8.89028 30.0115 8.8838 29.3314 8.92386 28.6533C8.96504 27.9857 9.01105 27.4367 9.06555 27.0087C8.35565 27.1104 7.63234 27.0285 6.96083 26.7703C6.32395 26.5179 5.76149 26.0996 5.3284 25.5562C4.84832 24.9409 4.48625 24.237 4.26151 23.4823C3.98848 22.5797 3.84926 21.6399 3.84856 20.6946C3.83518 19.8107 3.91969 18.9282 4.10045 18.0641C4.27089 17.2342 4.51035 16.4209 4.81615 15.6333C5.09052 14.922 5.42397 14.2365 5.8128 13.5843C6.1298 13.0445 6.49727 12.538 6.90997 12.0719C7.22994 11.7459 7.58041 11.4533 7.95627 11.1984C8.37866 10.8998 8.83094 10.6488 9.30533 10.4497C9.47261 10.361 9.64781 10.2891 9.82848 10.2351L10.1312 10.164C10.7366 10.0075 11.3665 9.9791 11.9828 10.0804C12.469 10.1628 12.9426 10.3109 13.3912 10.5209C13.8247 10.7366 14.2247 11.0175 14.578 11.3544C14.6313 11.4031 14.6822 11.4505 14.7306 11.4979C14.7766 11.546 14.814 11.6022 14.8408 11.6639C14.9112 11.7789 14.962 11.9056 14.991 12.0382C14.9947 12.0718 14.9902 12.1059 14.9779 12.1373C14.9657 12.1686 14.946 12.1964 14.9207 12.2179C14.8612 12.2692 14.7931 12.309 14.7197 12.3352C14.6421 12.3655 14.573 12.4152 14.5187 12.48C14.4787 12.5274 14.4073 12.7582 14.3068 13.17C14.2062 13.5818 14.0851 14.1234 13.9435 14.7922C13.8018 15.4611 13.6492 16.2185 13.4809 17.0671C13.3125 17.9156 13.1406 18.8141 12.9662 19.7474C12.7918 20.6808 12.6247 21.6192 12.4636 22.5713C12.3026 23.5234 12.1548 24.4169 12.0204 25.2754C12.1282 25.2904 12.225 25.3016 12.3135 25.3104C12.4019 25.3191 12.4781 25.3228 12.5448 25.3228H12.747C12.598 25.4177 12.46 25.5125 12.3328 25.6086C12.2057 25.7047 12.0749 25.7908 11.9417 25.8706C11.9276 25.9336 11.917 25.9973 11.9102 26.0616C11.9041 26.1254 11.894 26.1888 11.8799 26.2512C11.8799 26.3311 11.8666 26.5258 11.84 26.834C11.8133 27.1422 11.7855 27.4704 11.76 27.811C11.7346 28.1517 11.7055 28.4712 11.6789 28.7644C11.6522 29.0576 11.6389 29.2211 11.6389 29.2523C11.6108 29.7009 11.6172 30.1512 11.6583 30.5987C11.6987 30.9714 11.7931 31.2455 11.9417 31.4211C12.2226 31.738 12.5254 31.8416 12.8463 31.7305C13.1672 31.6195 13.5063 31.3412 13.8623 30.897C14.2819 30.3522 14.6497 29.7672 14.9607 29.15C15.3361 28.4279 15.7047 27.6218 16.0663 26.7317C16.3223 25.7791 16.5842 24.723 16.8523 23.5634C17.0808 22.5651 17.3423 21.3938 17.637 20.0494C17.9317 18.7051 18.2203 17.2401 18.5029 15.6545C18.9281 15.5297 19.375 15.5049 19.8108 15.5821C20.1585 15.6695 20.4756 15.8554 20.7263 16.1187C21.0024 16.3974 21.1469 16.8857 21.1598 17.5837C21.1605 18.33 21.0763 19.0737 20.9091 19.7999C20.7267 20.6409 20.5216 21.5102 20.2939 22.4079C20.0663 23.3055 19.841 24.1877 19.6182 25.0545C19.4097 25.8203 19.2527 26.6 19.1483 27.388L19.089 28.1742C19.089 28.4449 19.0817 28.6596 19.0696 28.8181C19.0621 28.939 19.0414 29.0587 19.0079 29.1749V29.2461C18.9804 29.6946 18.984 30.1445 19.0188 30.5925C19.0511 30.9652 19.1415 31.2393 19.29 31.4148C19.5589 31.7168 19.8507 31.82 20.1656 31.7243C20.4804 31.6286 20.8094 31.3791 21.1525 30.9756C21.5559 30.4744 21.9067 29.9307 22.1988 29.3534C22.5541 28.677 22.9097 27.9188 23.2657 27.0786C23.6218 26.2383 23.9738 25.337 24.3217 24.3745C24.6721 23.4136 25.0011 22.4407 25.3087 21.4558C25.6575 20.3435 25.9425 19.3269 26.1637 18.406C26.3849 17.4851 26.5528 16.6474 26.6674 15.8928C26.7742 15.2272 26.8465 14.5561 26.8842 13.8826C26.9109 13.2944 26.9177 12.7703 26.9048 12.3103C26.8507 11.2463 26.6828 10.4144 26.401 9.81457C26.6879 9.58453 27.035 9.44809 27.3977 9.42275C27.7583 9.39963 28.1153 9.50882 28.4052 9.73097C28.7201 9.9614 28.995 10.327 29.2299 10.8278C29.4648 11.3286 29.617 11.9821 29.6865 12.7882C29.7566 13.7568 29.7294 14.7303 29.6053 15.6932Z" fill="#FF8900"/>
</svg>
