<svg width="62" height="62" viewBox="0 0 62 62" fill="none" xmlns="http://www.w3.org/2000/svg">
<path d="M2.9355 59.3292C2.98798 59.5386 3.10895 59.7246 3.27921 59.8575C3.44946 59.9903 3.65923 60.0625 3.87519 60.0625H44.5627C44.7786 60.0625 44.9884 59.9903 45.1587 59.8575C45.3289 59.7246 45.4499 59.5386 45.5024 59.3292L46.4711 55.4542C46.5069 55.3113 46.5097 55.1622 46.4792 55.0181C46.4487 54.8741 46.3857 54.7389 46.2951 54.6228C46.2045 54.5067 46.0887 54.4128 45.9563 54.3482C45.824 54.2836 45.6787 54.25 45.5314 54.25H44.5133C44.2931 49.6977 42.5515 45.3509 39.5675 41.906C36.5834 38.461 32.5296 36.1172 28.0552 35.2499C28.0668 35.124 28.0939 35.0009 28.0939 34.875C28.0939 33.8473 27.6857 32.8617 26.959 32.135C26.2323 31.4083 25.2466 31 24.2189 31C23.1912 31 22.2056 31.4083 21.4789 32.135C20.7522 32.8617 20.3439 33.8473 20.3439 34.875C20.3439 35.0009 20.3711 35.124 20.3827 35.2499C15.9083 36.1172 11.8545 38.461 8.8704 41.906C5.88635 45.3509 4.14477 49.6977 3.92459 54.25H2.90644C2.75918 54.25 2.61387 54.2836 2.48153 54.3482C2.3492 54.4128 2.23333 54.5067 2.14274 54.6228C2.05215 54.7389 1.98921 54.8741 1.95871 55.0181C1.92822 55.1622 1.93097 55.3113 1.96675 55.4542L2.9355 59.3292ZM43.8061 58.125H4.63178L4.14741 56.1875H44.2905L43.8061 58.125ZM22.2814 34.875C22.2814 34.3611 22.4856 33.8683 22.8489 33.505C23.2123 33.1416 23.7051 32.9375 24.2189 32.9375C24.7328 32.9375 25.2256 33.1416 25.589 33.505C25.9523 33.8683 26.1564 34.3611 26.1564 34.875C26.1564 34.9079 26.1477 34.9399 26.1467 34.9719C25.5112 34.9118 24.8699 34.875 24.2189 34.875C23.5679 34.875 22.9266 34.9128 22.2911 34.9719C22.2902 34.9399 22.2814 34.9079 22.2814 34.875ZM24.2189 36.8125C28.9283 36.8203 33.4556 38.6321 36.87 41.8755C40.2844 45.1189 42.3263 49.5473 42.5758 54.25H5.86209C6.11159 49.5473 8.15348 45.1189 11.5679 41.8755C14.9823 38.6321 19.5096 36.8203 24.2189 36.8125Z" fill="url(#paint0_linear_0_251)" fill-opacity="0.8"/>
<path d="M9.9537 46.9844L11.6306 47.9532C13.2217 45.2044 15.6679 43.0514 18.5964 41.8222C21.525 40.593 24.7751 40.3551 27.8514 41.1448L28.3357 39.2693C24.8496 38.3734 21.1661 38.6425 17.8472 40.0355C14.5283 41.4285 11.7562 43.8689 9.9537 46.9844Z" fill="url(#paint1_linear_0_251)"/>
<path d="M8.26926 51.1016L10.1448 51.5859C10.3039 50.9679 10.5039 50.3611 10.7434 49.7695L8.94738 49.043C8.67649 49.7136 8.44996 50.4013 8.26926 51.1016Z" fill="url(#paint2_linear_0_251)"/>
<path d="M59.0938 6.7813H56.1875V2.9063C56.1875 2.76648 56.1572 2.62831 56.0987 2.50129C56.0403 2.37427 55.955 2.26142 55.8488 2.17048C55.7426 2.07954 55.6179 2.01268 55.4834 1.97448C55.3489 1.93628 55.2077 1.92765 55.0696 1.94918L24.0696 6.79293V6.81133C23.8432 6.8438 23.636 6.95638 23.4856 7.12864C23.3352 7.3009 23.2516 7.52139 23.25 7.75005V29.0626H25.1875V8.7188H58.125V58.125H47.4688V60.0625H59.0938C59.3507 60.0625 59.5971 59.9605 59.7788 59.7788C59.9604 59.5971 60.0625 59.3507 60.0625 59.0938V7.75005C60.0625 7.49312 59.9604 7.24672 59.7788 7.06504C59.5971 6.88337 59.3507 6.7813 59.0938 6.7813ZM54.25 6.7813H36.6933L54.25 4.0378V6.7813Z" fill="url(#paint3_linear_0_251)"/>
<path d="M32.7518 19.1599L30.0112 16.4203L28.6414 17.7901L31.382 20.5297C32.1713 21.3191 33.2092 21.8116 34.3199 21.9238C35.4306 22.0361 36.5459 21.7613 37.4773 21.1458L40.2867 23.9552L31.382 32.86L32.7518 34.2298L41.6565 25.325L50.5613 34.2298L51.9311 32.86L43.0263 23.9552L44.4659 22.5157C45.3976 23.1302 46.5128 23.4045 47.6232 23.2923C48.7337 23.18 49.7714 22.6881 50.5613 21.8995L51.9311 20.5297C52.3937 20.0829 52.7627 19.5484 53.0166 18.9575C53.2704 18.3665 53.404 17.7309 53.4096 17.0878C53.4152 16.4446 53.2927 15.8068 53.0491 15.2115C52.8056 14.6162 52.4459 14.0754 51.9911 13.6206C51.5363 13.1658 50.9955 12.8062 50.4002 12.5626C49.8049 12.3191 49.1671 12.1965 48.524 12.2021C47.8808 12.2077 47.2452 12.3413 46.6543 12.5952C46.0633 12.849 45.5288 13.218 45.082 13.6807L43.7122 15.0505C42.9228 15.8399 42.4303 16.8777 42.3181 17.9884C42.2058 19.0991 42.4806 20.2145 43.0961 21.1458L41.6565 22.5854L38.8471 19.776C39.4626 18.8446 39.7374 17.7293 39.6251 16.6186C39.5129 15.5079 39.0204 14.47 38.231 13.6807L35.4914 10.9401L34.1216 12.3099L36.8612 15.0505C37.2818 15.4753 37.5612 16.0196 37.6613 16.609C37.7613 17.1984 37.6771 17.8044 37.4202 18.3442L32.7518 13.6758L31.382 15.0456L36.0504 19.714C35.5104 19.9727 34.9038 20.0583 34.3134 19.9591C33.7229 19.8599 33.1776 19.5808 32.7518 19.1599ZM45.082 16.4203L46.4518 15.0505C47 14.5211 47.7341 14.2281 48.4961 14.2348C49.2581 14.2414 49.987 14.547 50.5259 15.0859C51.0647 15.6247 51.3704 16.3536 51.377 17.1156C51.3836 17.8777 51.0907 18.6118 50.5613 19.1599L49.1915 20.5297C48.9234 20.8073 48.6027 21.0287 48.2481 21.181C47.8935 21.3333 47.5122 21.4135 47.1263 21.4169C46.7404 21.4202 46.3577 21.3467 46.0005 21.2005C45.6434 21.0544 45.3189 20.8386 45.046 20.5657C44.7731 20.2929 44.5573 19.9684 44.4112 19.6112C44.2651 19.254 44.1915 18.8713 44.1949 18.4855C44.1982 18.0996 44.2784 17.7182 44.4307 17.3636C44.583 17.0091 44.8044 16.6884 45.082 16.4203Z" fill="url(#paint4_linear_0_251)"/>
<path d="M53.2812 36.8125H55.2188V38.75H53.2812V36.8125Z" fill="url(#paint5_linear_0_251)"/>
<path d="M53.2812 40.6875H55.2188V42.625H53.2812V40.6875Z" fill="url(#paint6_linear_0_251)"/>
<path d="M53.2812 44.5625H55.2188V46.5H53.2812V44.5625Z" fill="url(#paint7_linear_0_251)"/>
<path d="M38.75 36.8125H51.3438V38.75H38.75V36.8125Z" fill="url(#paint8_linear_0_251)"/>
<path d="M42.625 40.6875H51.3438V42.625H42.625V40.6875Z" fill="url(#paint9_linear_0_251)"/>
<path d="M45.5312 44.5625H51.3438V46.5H45.5312V44.5625Z" fill="url(#paint10_linear_0_251)"/>
<path d="M19.375 9.6875H21.3125V27.125H19.375V9.6875Z" fill="url(#paint11_linear_0_251)"/>
<defs>
<linearGradient id="paint0_linear_0_251" x1="24.2189" y1="4.71006" x2="24.2189" y2="58.6694" gradientUnits="userSpaceOnUse">
<stop stop-color="#EC5937"/>
<stop offset="0.129" stop-color="#EC5937"/>
<stop offset="0.343" stop-color="#EC5937"/>
<stop offset="0.616" stop-color="#2A2163"/>
<stop offset="0.934" stop-color="#2A2163"/>
<stop offset="1" stop-color="#2A2163"/>
</linearGradient>
<linearGradient id="paint1_linear_0_251" x1="373.219" y1="83.4949" x2="373.219" y2="596.098" gradientUnits="userSpaceOnUse">
<stop stop-color="#FC5C7D"/>
<stop offset="0.129" stop-color="#F35E85"/>
<stop offset="0.343" stop-color="#D9659B"/>
<stop offset="0.616" stop-color="#B070BF"/>
<stop offset="0.934" stop-color="#777FF0"/>
<stop offset="1" stop-color="#6A82FB"/>
</linearGradient>
<linearGradient id="paint2_linear_0_251" x1="32.5485" y1="61.4069" x2="32.5485" y2="203.05" gradientUnits="userSpaceOnUse">
<stop stop-color="#FC5C7D"/>
<stop offset="0.129" stop-color="#F35E85"/>
<stop offset="0.343" stop-color="#D9659B"/>
<stop offset="0.616" stop-color="#B070BF"/>
<stop offset="0.934" stop-color="#777FF0"/>
<stop offset="1" stop-color="#6A82FB"/>
</linearGradient>
<linearGradient id="paint3_linear_0_251" x1="1606.19" y1="284.541" x2="1606.19" y2="3522.1" gradientUnits="userSpaceOnUse">
<stop stop-color="#EC5937"/>
<stop offset="0.129" stop-color="#EC5937"/>
<stop offset="0.343" stop-color="#EC5937"/>
<stop offset="0.616" stop-color="#2A2163"/>
<stop offset="0.934" stop-color="#2A2163"/>
<stop offset="1" stop-color="#2A2163"/>
</linearGradient>
<linearGradient id="paint4_linear_0_251" x1="1076.77" y1="124.175" x2="1076.77" y2="1421.41" gradientUnits="userSpaceOnUse">
<stop stop-color="#FC5C7D"/>
<stop offset="0.129" stop-color="#F35E85"/>
<stop offset="0.343" stop-color="#D9659B"/>
<stop offset="0.616" stop-color="#B070BF"/>
<stop offset="0.934" stop-color="#777FF0"/>
<stop offset="1" stop-color="#6A82FB"/>
</linearGradient>
<linearGradient id="paint5_linear_0_251" x1="161.781" y1="46.2326" x2="161.781" y2="154.151" gradientUnits="userSpaceOnUse">
<stop stop-color="#EC5937"/>
<stop offset="0.129" stop-color="#EC5937"/>
<stop offset="0.343" stop-color="#EC5937"/>
<stop offset="0.616" stop-color="#2A2163"/>
<stop offset="0.934" stop-color="#2A2163"/>
<stop offset="1" stop-color="#2A2163"/>
</linearGradient>
<linearGradient id="paint6_linear_0_251" x1="161.781" y1="50.1076" x2="161.781" y2="158.026" gradientUnits="userSpaceOnUse">
<stop stop-color="#EC5937"/>
<stop offset="0.129" stop-color="#EC5937"/>
<stop offset="0.343" stop-color="#EC5937"/>
<stop offset="0.616" stop-color="#2A2163"/>
<stop offset="0.934" stop-color="#2A2163"/>
<stop offset="1" stop-color="#2A2163"/>
</linearGradient>
<linearGradient id="paint7_linear_0_251" x1="161.781" y1="53.9826" x2="161.781" y2="161.901" gradientUnits="userSpaceOnUse">
<stop stop-color="#EC5937"/>
<stop offset="0.129" stop-color="#EC5937"/>
<stop offset="0.343" stop-color="#EC5937"/>
<stop offset="0.616" stop-color="#2A2163"/>
<stop offset="0.934" stop-color="#2A2163"/>
<stop offset="1" stop-color="#2A2163"/>
</linearGradient>
<linearGradient id="paint8_linear_0_251" x1="624.359" y1="46.2326" x2="624.359" y2="154.151" gradientUnits="userSpaceOnUse">
<stop stop-color="#FC5C7D"/>
<stop offset="0.129" stop-color="#F35E85"/>
<stop offset="0.343" stop-color="#D9659B"/>
<stop offset="0.616" stop-color="#B070BF"/>
<stop offset="0.934" stop-color="#777FF0"/>
<stop offset="1" stop-color="#6A82FB"/>
</linearGradient>
<linearGradient id="paint9_linear_0_251" x1="465.484" y1="50.1076" x2="465.484" y2="158.026" gradientUnits="userSpaceOnUse">
<stop stop-color="#EC5937"/>
<stop offset="0.129" stop-color="#EC5937"/>
<stop offset="0.343" stop-color="#EC5937"/>
<stop offset="0.616" stop-color="#2A2163"/>
<stop offset="0.934" stop-color="#2A2163"/>
<stop offset="1" stop-color="#2A2163"/>
</linearGradient>
<linearGradient id="paint10_linear_0_251" x1="336.156" y1="53.9826" x2="336.156" y2="161.901" gradientUnits="userSpaceOnUse">
<stop stop-color="#EC5937"/>
<stop offset="0.129" stop-color="#EC5937"/>
<stop offset="0.343" stop-color="#EC5937"/>
<stop offset="0.616" stop-color="#2A2163"/>
<stop offset="0.934" stop-color="#2A2163"/>
<stop offset="1" stop-color="#2A2163"/>
</linearGradient>
<linearGradient id="paint11_linear_0_251" x1="60.0625" y1="94.4686" x2="60.0625" y2="1065.74" gradientUnits="userSpaceOnUse">
<stop stop-color="#FC5C7D"/>
<stop offset="0.129" stop-color="#F35E85"/>
<stop offset="0.343" stop-color="#D9659B"/>
<stop offset="0.616" stop-color="#B070BF"/>
<stop offset="0.934" stop-color="#777FF0"/>
<stop offset="1" stop-color="#6A82FB"/>
</linearGradient>
</defs>
</svg>
