<svg width="62" height="62" viewBox="0 0 62 62" fill="none" xmlns="http://www.w3.org/2000/svg">
<path d="M55.3728 14.0057C55.3131 13.0973 55.0417 12.2155 54.5802 11.4308C54.1188 10.6461 53.4801 9.9803 52.7153 9.48658L41.2114 2.09138L41.2102 2.09332C40.9994 1.95688 40.7439 1.90773 40.4976 1.95624C40.4502 1.96568 35.6936 2.90622 31.0002 2.90622C26.3138 2.90622 21.55 1.96568 21.5025 1.95624C21.2563 1.9077 21.0007 1.95686 20.79 2.09332L20.7888 2.09138L9.28492 9.48658C8.52013 9.98031 7.88149 10.6461 7.42006 11.4308C6.95862 12.2155 6.68721 13.0973 6.62751 14.0057L3.96817 55.6675C3.93219 56.2311 4.01213 56.7961 4.20307 57.3276C4.39401 57.8591 4.69189 58.3459 5.07831 58.7577C5.46472 59.1696 5.93148 59.4979 6.44974 59.7223C6.968 59.9467 7.52677 60.0625 8.09154 60.0625H16.4689C17.2394 60.0616 17.9781 59.7551 18.523 59.2103C19.0678 58.6654 19.3743 57.9267 19.3752 57.1562V56.1875H42.6252V57.1562C42.6261 57.9267 42.9326 58.6654 43.4774 59.2103C44.0222 59.7551 44.7609 60.0616 45.5314 60.0625H53.9088C54.4736 60.0625 55.0323 59.9467 55.5506 59.7223C56.0689 59.4979 56.5356 59.1696 56.922 58.7577C57.3085 58.3459 57.6063 57.8591 57.7973 57.3276C57.9882 56.7961 58.0682 56.2311 58.0322 55.6675L55.3728 14.0057ZM31.0002 4.84372C34.0601 4.84372 37.0842 4.47184 38.9656 4.18424L38.0734 5.96856C37.1659 6.21087 34.6429 6.78122 31.0002 6.78122C27.3574 6.78122 24.8332 6.21063 23.927 5.96856L23.0347 4.18424C24.9162 4.47184 27.9403 4.84372 31.0002 4.84372ZM20.3439 54.25H17.2253L16.7409 52.3125H20.3439V54.25ZM17.502 34.6812C18.1922 35.1993 19.052 35.8437 20.6665 35.8437C22.2811 35.8437 23.1403 35.1991 23.8309 34.6812C24.4308 34.2315 24.8642 33.9062 25.8329 33.9062C26.8015 33.9062 27.235 34.2314 27.8348 34.6812C28.525 35.1991 29.3848 35.8437 30.9994 35.8437C32.6141 35.8437 33.4734 35.1991 34.1639 34.6812C34.7638 34.2315 35.1972 33.9062 36.1659 33.9062C37.1347 33.9062 37.5683 34.2314 38.1682 34.6812C38.8584 35.1991 39.7182 35.8437 41.333 35.8437C42.9478 35.8437 43.8072 35.1991 44.4978 34.6812C44.852 34.4157 45.1489 34.1942 45.5314 34.0569V37.8695C44.5142 38.0633 43.8724 38.5408 43.3354 38.9437C42.7354 39.3936 42.302 39.7187 41.333 39.7187C40.364 39.7187 39.9307 39.3936 39.3307 38.9437C38.6405 38.4258 37.7807 37.7812 36.1659 37.7812C34.5511 37.7812 33.692 38.4258 33.0014 38.9437C32.4015 39.3935 31.9681 39.7187 30.9994 39.7187C30.0308 39.7187 29.5973 39.3936 28.9973 38.9437C28.307 38.4258 27.4473 37.7812 25.8329 37.7812C24.2184 37.7812 23.3589 38.4258 22.6683 38.9437C22.0685 39.3935 21.6351 39.7187 20.6665 39.7187C19.6979 39.7187 19.2644 39.3936 18.6646 38.9437C18.1274 38.5407 17.4864 38.0626 16.4689 37.8694V34.057C16.8512 34.1943 17.148 34.4157 17.502 34.6812ZM16.4689 32.057V28.2445C16.8512 28.3818 17.148 28.6032 17.502 28.8686C18.1922 29.3866 19.052 30.0311 20.6665 30.0311C22.2811 30.0311 23.1403 29.3865 23.8309 28.8686C24.4308 28.4189 24.8642 28.0936 25.8329 28.0936C26.8015 28.0936 27.235 28.4187 27.8348 28.8686C28.525 29.3865 29.3848 30.0311 30.9994 30.0311C32.6141 30.0311 33.4734 29.3865 34.1639 28.8686C34.7638 28.4189 35.1972 28.0936 36.1659 28.0936C37.1347 28.0936 37.5683 28.4187 38.1682 28.8686C38.8584 29.3865 39.7182 30.0311 41.333 30.0311C42.9478 30.0311 43.8072 29.3865 44.4978 28.8686C44.852 28.603 45.1489 28.3816 45.5314 28.2442V32.0569C44.5142 32.2506 43.8724 32.7282 43.3354 33.1311C42.7354 33.581 42.302 33.9061 41.333 33.9061C40.364 33.9061 39.9307 33.581 39.3307 33.1311C38.6405 32.6132 37.7807 31.9686 36.1659 31.9686C34.5511 31.9686 33.692 32.6132 33.0014 33.1311C32.4015 33.5808 31.9681 33.9061 30.9994 33.9061C30.0308 33.9061 29.5973 33.581 28.9973 33.1311C28.307 32.6132 27.4473 31.9686 25.8329 31.9686C24.2184 31.9686 23.3589 32.6132 22.6683 33.1311C22.0685 33.5808 21.6351 33.9061 20.6665 33.9061C19.6979 33.9061 19.2644 33.581 18.6646 33.1311C18.1279 32.7283 17.4861 32.2503 16.4689 32.057ZM17.502 40.4936C18.1922 41.0116 19.052 41.6561 20.6665 41.6561C22.2811 41.6561 23.1403 41.0115 23.8309 40.4936C24.4308 40.0439 24.8642 39.7186 25.8329 39.7186C26.8015 39.7186 27.235 40.0437 27.8348 40.4936C28.525 41.0115 29.3848 41.6561 30.9994 41.6561C32.6141 41.6561 33.4734 41.0115 34.1639 40.4936C34.7638 40.0439 35.1972 39.7186 36.1659 39.7186C37.1347 39.7186 37.5683 40.0437 38.1682 40.4936C38.8584 41.0115 39.7182 41.6561 41.333 41.6561C42.9478 41.6561 43.8072 41.0115 44.4978 40.4936C44.852 40.228 45.1489 40.0066 45.5314 39.8692V43.6819C44.5142 43.8756 43.8724 44.3532 43.3354 44.7561C42.7354 45.206 42.302 45.5311 41.333 45.5311C40.364 45.5311 39.9307 45.206 39.3307 44.7561C38.6405 44.2382 37.7807 43.5936 36.1659 43.5936C34.5511 43.5936 33.692 44.2382 33.0014 44.7561C32.4015 45.2058 31.9681 45.5311 30.9994 45.5311C30.0308 45.5311 29.5973 45.206 28.9973 44.7561C28.307 44.2382 27.4473 43.5936 25.8329 43.5936C24.2184 43.5936 23.3589 44.2382 22.6683 44.7561C22.0685 45.2058 21.6351 45.5311 20.6665 45.5311C19.6979 45.5311 19.2644 45.206 18.6646 44.7561C18.1274 44.3531 17.4864 43.875 16.4689 43.6818V39.8695C16.8512 40.0068 17.148 40.2282 17.502 40.4937V40.4936ZM17.502 46.3061C18.1922 46.8241 19.052 47.4686 20.6665 47.4686C22.2811 47.4686 23.1403 46.824 23.8309 46.3061C24.4308 45.8564 24.8642 45.5311 25.8329 45.5311C26.8015 45.5311 27.235 45.8562 27.8348 46.3061C28.525 46.824 29.3848 47.4686 30.9994 47.4686C32.6141 47.4686 33.4734 46.824 34.1639 46.3061C34.7638 45.8564 35.1972 45.5311 36.1659 45.5311C37.1347 45.5311 37.5683 45.8562 38.1682 46.3061C38.8584 46.824 39.7182 47.4686 41.333 47.4686C42.9478 47.4686 43.8072 46.824 44.4978 46.3061C44.852 46.0405 45.1489 45.8191 45.5314 45.6817V50.375H16.4689V45.682C16.8512 45.8193 17.148 46.0407 17.502 46.3062V46.3061ZM24.2189 54.25H22.2814V52.3125H24.2189V54.25ZM28.0939 54.25H26.1564V52.3125H28.0939V54.25ZM31.9689 54.25H30.0314V52.3125H31.9689V54.25ZM35.8439 54.25H33.9064V52.3125H35.8439V54.25ZM39.7189 54.25H37.7814V52.3125H39.7189V54.25ZM41.6564 54.25V52.3125H45.2594L44.7751 54.25H41.6564ZM55.4604 57.4822C55.2571 57.6866 55.0153 57.8487 54.749 57.959C54.4827 58.0694 54.1971 58.1258 53.9088 58.125H45.5314C45.2746 58.1247 45.0283 58.0225 44.8467 57.8409C44.6651 57.6593 44.563 57.4131 44.5627 57.1562V56.1875H45.5314C45.7475 56.1875 45.9573 56.1152 46.1276 55.9823C46.2979 55.8493 46.4188 55.6632 46.4712 55.4536L47.44 51.5786C47.4592 51.5018 47.4689 51.4229 47.4689 51.3437V27.2313L49.3834 18.6163L47.4919 18.1961L46.3132 23.5006L45.4817 21.0061L43.6437 21.6188L45.2096 26.3167C44.374 26.5407 43.8138 26.9599 43.3354 27.3187C42.7354 27.7686 42.302 28.0937 41.333 28.0937C40.364 28.0937 39.9307 27.7686 39.3307 27.3187C38.6405 26.8008 37.7807 26.1562 36.1659 26.1562C34.5511 26.1562 33.692 26.8008 33.0014 27.3187C32.4015 27.7685 31.9681 28.0937 30.9994 28.0937C30.0308 28.0937 29.5973 27.7686 28.9973 27.3187C28.307 26.8008 27.4473 26.1562 25.8329 26.1562C24.2184 26.1562 23.3589 26.8008 22.6683 27.3187C22.0685 27.7685 21.6351 28.0937 20.6665 28.0937C19.6979 28.0937 19.2644 27.7686 18.6646 27.3187C18.1862 26.9598 17.6262 26.5406 16.7908 26.3167L18.3567 21.6182L16.5187 21.0055L15.6871 23.5L14.5084 18.1955L12.6169 18.6157L14.5314 27.2313V51.3437C14.5314 51.4229 14.5411 51.5018 14.5604 51.5786L15.5291 55.4536C15.5815 55.6632 15.7025 55.8493 15.8727 55.9823C16.043 56.1152 16.2529 56.1875 16.4689 56.1875H17.4377V57.1562C17.4374 57.4131 17.3352 57.6593 17.1536 57.8409C16.972 58.0225 16.7258 58.1247 16.4689 58.125H8.09154C7.79162 58.125 7.4949 58.0635 7.21968 57.9443C6.94447 57.8251 6.69661 57.6508 6.4914 57.432C6.2862 57.2133 6.12801 56.9548 6.0266 56.6726C5.92519 56.3904 5.88272 56.0903 5.9018 55.791L8.5615 14.1292C8.60127 13.5236 8.78216 12.9358 9.08971 12.4127C9.39727 11.8895 9.82296 11.4456 10.3327 11.1164L20.9284 4.30461L22.3834 7.21449C22.4983 7.44429 22.6997 7.61905 22.9434 7.70032C23.0682 7.74186 26.0555 8.71872 30.9998 8.71872C35.9441 8.71872 38.9314 7.74186 39.0562 7.70032C39.2999 7.61905 39.5014 7.44429 39.6162 7.21449L41.0712 4.30461L51.6669 11.1164C52.1768 11.4455 52.6026 11.8894 52.9103 12.4126C53.218 12.9357 53.399 13.5236 53.4388 14.1292L56.0981 55.791C56.118 56.102 56.0714 56.4137 55.9614 56.7053C55.8515 56.9969 55.6807 57.2618 55.4604 57.4822Z" fill="url(#paint0_linear_0_234)"/>
<defs>
<linearGradient id="paint0_linear_0_234" x1="31.0002" y1="6.94179" x2="31.0002" y2="53.3318" gradientUnits="userSpaceOnUse">
<stop stop-color="#EC5937" stop-opacity="0.8"/>
<stop offset="0.129" stop-color="#EC5937" stop-opacity="0.8"/>
<stop offset="0.343" stop-color="#EC5937" stop-opacity="0.8"/>
<stop offset="0.616" stop-color="#2A2163"/>
<stop offset="0.934" stop-color="#2A2163"/>
<stop offset="1" stop-color="#2A2163"/>
</linearGradient>
</defs>
</svg>
