<svg width="56" height="60" viewBox="0 0 56 60" fill="none" xmlns="http://www.w3.org/2000/svg">
<path d="M52.3728 13.0057C52.3131 12.0973 52.0417 11.2155 51.5802 10.4308C51.1188 9.64613 50.4801 8.9803 49.7153 8.48658L38.2114 1.09138L38.2102 1.09332C37.9994 0.956884 37.7439 0.907729 37.4976 0.95624C37.4502 0.965685 32.6936 1.90622 28.0002 1.90622C23.3138 1.90622 18.55 0.965685 18.5025 0.95624C18.2563 0.907697 18.0007 0.956855 17.79 1.09332L17.7888 1.09138L6.28492 8.48658C5.52013 8.98031 4.88149 9.64615 4.42006 10.4308C3.95862 11.2155 3.68721 12.0973 3.62751 13.0057L0.968174 54.6675C0.932189 55.2311 1.01213 55.7961 1.20307 56.3276C1.39401 56.8591 1.69189 57.3459 2.07831 57.7577C2.46472 58.1696 2.93148 58.4979 3.44974 58.7223C3.968 58.9467 4.52677 59.0625 5.09154 59.0625H13.4689C14.2394 59.0616 14.9781 58.7551 15.523 58.2103C16.0678 57.6654 16.3743 56.9267 16.3752 56.1562V55.1875H39.6252V56.1562C39.6261 56.9267 39.9326 57.6654 40.4774 58.2103C41.0222 58.7551 41.7609 59.0616 42.5314 59.0625H50.9088C51.4736 59.0625 52.0323 58.9467 52.5506 58.7223C53.0689 58.4979 53.5356 58.1696 53.922 57.7577C54.3085 57.3459 54.6063 56.8591 54.7973 56.3276C54.9882 55.7961 55.0682 55.2311 55.0322 54.6675L52.3728 13.0057ZM28.0002 3.84372C31.0601 3.84372 34.0842 3.47184 35.9656 3.18424L35.0734 4.96856C34.1659 5.21087 31.6429 5.78122 28.0002 5.78122C24.3574 5.78122 21.8332 5.21063 20.927 4.96856L20.0347 3.18424C21.9162 3.47184 24.9403 3.84372 28.0002 3.84372ZM17.3439 53.25H14.2253L13.7409 51.3125H17.3439V53.25ZM14.502 33.6812C15.1922 34.1993 16.052 34.8437 17.6665 34.8437C19.2811 34.8437 20.1403 34.1991 20.8309 33.6812C21.4308 33.2315 21.8642 32.9062 22.8329 32.9062C23.8015 32.9062 24.235 33.2314 24.8348 33.6812C25.525 34.1991 26.3848 34.8437 27.9994 34.8437C29.6141 34.8437 30.4734 34.1991 31.1639 33.6812C31.7638 33.2315 32.1972 32.9062 33.1659 32.9062C34.1347 32.9062 34.5683 33.2314 35.1682 33.6812C35.8584 34.1991 36.7182 34.8437 38.333 34.8437C39.9478 34.8437 40.8072 34.1991 41.4978 33.6812C41.852 33.4157 42.1489 33.1942 42.5314 33.0569V36.8695C41.5142 37.0633 40.8724 37.5408 40.3354 37.9437C39.7354 38.3936 39.302 38.7187 38.333 38.7187C37.364 38.7187 36.9307 38.3936 36.3307 37.9437C35.6405 37.4258 34.7807 36.7812 33.1659 36.7812C31.5511 36.7812 30.692 37.4258 30.0014 37.9437C29.4015 38.3935 28.9681 38.7187 27.9994 38.7187C27.0308 38.7187 26.5973 38.3936 25.9973 37.9437C25.307 37.4258 24.4473 36.7812 22.8329 36.7812C21.2184 36.7812 20.3589 37.4258 19.6683 37.9437C19.0685 38.3935 18.6351 38.7187 17.6665 38.7187C16.6979 38.7187 16.2644 38.3936 15.6646 37.9437C15.1274 37.5407 14.4864 37.0626 13.4689 36.8694V33.057C13.8512 33.1943 14.148 33.4157 14.502 33.6812ZM13.4689 31.057V27.2445C13.8512 27.3818 14.148 27.6032 14.502 27.8686C15.1922 28.3866 16.052 29.0311 17.6665 29.0311C19.2811 29.0311 20.1403 28.3865 20.8309 27.8686C21.4308 27.4189 21.8642 27.0936 22.8329 27.0936C23.8015 27.0936 24.235 27.4187 24.8348 27.8686C25.525 28.3865 26.3848 29.0311 27.9994 29.0311C29.6141 29.0311 30.4734 28.3865 31.1639 27.8686C31.7638 27.4189 32.1972 27.0936 33.1659 27.0936C34.1347 27.0936 34.5683 27.4187 35.1682 27.8686C35.8584 28.3865 36.7182 29.0311 38.333 29.0311C39.9478 29.0311 40.8072 28.3865 41.4978 27.8686C41.852 27.603 42.1489 27.3816 42.5314 27.2442V31.0569C41.5142 31.2506 40.8724 31.7282 40.3354 32.1311C39.7354 32.581 39.302 32.9061 38.333 32.9061C37.364 32.9061 36.9307 32.581 36.3307 32.1311C35.6405 31.6132 34.7807 30.9686 33.1659 30.9686C31.5511 30.9686 30.692 31.6132 30.0014 32.1311C29.4015 32.5808 28.9681 32.9061 27.9994 32.9061C27.0308 32.9061 26.5973 32.581 25.9973 32.1311C25.307 31.6132 24.4473 30.9686 22.8329 30.9686C21.2184 30.9686 20.3589 31.6132 19.6683 32.1311C19.0685 32.5808 18.6351 32.9061 17.6665 32.9061C16.6979 32.9061 16.2644 32.581 15.6646 32.1311C15.1279 31.7283 14.4861 31.2503 13.4689 31.057ZM14.502 39.4936C15.1922 40.0116 16.052 40.6561 17.6665 40.6561C19.2811 40.6561 20.1403 40.0115 20.8309 39.4936C21.4308 39.0439 21.8642 38.7186 22.8329 38.7186C23.8015 38.7186 24.235 39.0437 24.8348 39.4936C25.525 40.0115 26.3848 40.6561 27.9994 40.6561C29.6141 40.6561 30.4734 40.0115 31.1639 39.4936C31.7638 39.0439 32.1972 38.7186 33.1659 38.7186C34.1347 38.7186 34.5683 39.0437 35.1682 39.4936C35.8584 40.0115 36.7182 40.6561 38.333 40.6561C39.9478 40.6561 40.8072 40.0115 41.4978 39.4936C41.852 39.228 42.1489 39.0066 42.5314 38.8692V42.6819C41.5142 42.8756 40.8724 43.3532 40.3354 43.7561C39.7354 44.206 39.302 44.5311 38.333 44.5311C37.364 44.5311 36.9307 44.206 36.3307 43.7561C35.6405 43.2382 34.7807 42.5936 33.1659 42.5936C31.5511 42.5936 30.692 43.2382 30.0014 43.7561C29.4015 44.2058 28.9681 44.5311 27.9994 44.5311C27.0308 44.5311 26.5973 44.206 25.9973 43.7561C25.307 43.2382 24.4473 42.5936 22.8329 42.5936C21.2184 42.5936 20.3589 43.2382 19.6683 43.7561C19.0685 44.2058 18.6351 44.5311 17.6665 44.5311C16.6979 44.5311 16.2644 44.206 15.6646 43.7561C15.1274 43.3531 14.4864 42.875 13.4689 42.6818V38.8695C13.8512 39.0068 14.148 39.2282 14.502 39.4937V39.4936ZM14.502 45.3061C15.1922 45.8241 16.052 46.4686 17.6665 46.4686C19.2811 46.4686 20.1403 45.824 20.8309 45.3061C21.4308 44.8564 21.8642 44.5311 22.8329 44.5311C23.8015 44.5311 24.235 44.8562 24.8348 45.3061C25.525 45.824 26.3848 46.4686 27.9994 46.4686C29.6141 46.4686 30.4734 45.824 31.1639 45.3061C31.7638 44.8564 32.1972 44.5311 33.1659 44.5311C34.1347 44.5311 34.5683 44.8562 35.1682 45.3061C35.8584 45.824 36.7182 46.4686 38.333 46.4686C39.9478 46.4686 40.8072 45.824 41.4978 45.3061C41.852 45.0405 42.1489 44.8191 42.5314 44.6817V49.375H13.4689V44.682C13.8512 44.8193 14.148 45.0407 14.502 45.3062V45.3061ZM21.2189 53.25H19.2814V51.3125H21.2189V53.25ZM25.0939 53.25H23.1564V51.3125H25.0939V53.25ZM28.9689 53.25H27.0314V51.3125H28.9689V53.25ZM32.8439 53.25H30.9064V51.3125H32.8439V53.25ZM36.7189 53.25H34.7814V51.3125H36.7189V53.25ZM38.6564 53.25V51.3125H42.2594L41.7751 53.25H38.6564ZM52.4604 56.4822C52.2571 56.6866 52.0153 56.8487 51.749 56.959C51.4827 57.0694 51.1971 57.1258 50.9088 57.125H42.5314C42.2746 57.1247 42.0283 57.0225 41.8467 56.8409C41.6651 56.6593 41.563 56.4131 41.5627 56.1562V55.1875H42.5314C42.7475 55.1875 42.9573 55.1152 43.1276 54.9823C43.2979 54.8493 43.4188 54.6632 43.4712 54.4536L44.44 50.5786C44.4592 50.5018 44.4689 50.4229 44.4689 50.3437V26.2313L46.3834 17.6163L44.4919 17.1961L43.3132 22.5006L42.4817 20.0061L40.6437 20.6188L42.2096 25.3167C41.374 25.5407 40.8138 25.9599 40.3354 26.3187C39.7354 26.7686 39.302 27.0937 38.333 27.0937C37.364 27.0937 36.9307 26.7686 36.3307 26.3187C35.6405 25.8008 34.7807 25.1562 33.1659 25.1562C31.5511 25.1562 30.692 25.8008 30.0014 26.3187C29.4015 26.7685 28.9681 27.0937 27.9994 27.0937C27.0308 27.0937 26.5973 26.7686 25.9973 26.3187C25.307 25.8008 24.4473 25.1562 22.8329 25.1562C21.2184 25.1562 20.3589 25.8008 19.6683 26.3187C19.0685 26.7685 18.6351 27.0937 17.6665 27.0937C16.6979 27.0937 16.2644 26.7686 15.6646 26.3187C15.1862 25.9598 14.6262 25.5406 13.7908 25.3167L15.3567 20.6182L13.5187 20.0055L12.6871 22.5L11.5084 17.1955L9.61693 17.6157L11.5314 26.2313V50.3437C11.5314 50.4229 11.5411 50.5018 11.5604 50.5786L12.5291 54.4536C12.5815 54.6632 12.7025 54.8493 12.8727 54.9823C13.043 55.1152 13.2529 55.1875 13.4689 55.1875H14.4377V56.1562C14.4374 56.4131 14.3352 56.6593 14.1536 56.8409C13.972 57.0225 13.7258 57.1247 13.4689 57.125H5.09154C4.79162 57.125 4.4949 57.0635 4.21968 56.9443C3.94447 56.8251 3.69661 56.6508 3.4914 56.432C3.2862 56.2133 3.12801 55.9548 3.0266 55.6726C2.92519 55.3904 2.88272 55.0903 2.9018 54.791L5.5615 13.1292C5.60127 12.5236 5.78216 11.9358 6.08971 11.4127C6.39727 10.8895 6.82296 10.4456 7.33274 10.1164L17.9284 3.30461L19.3834 6.21449C19.4983 6.44429 19.6997 6.61905 19.9434 6.70032C20.0682 6.74186 23.0555 7.71872 27.9998 7.71872C32.9441 7.71872 35.9314 6.74186 36.0562 6.70032C36.2999 6.61905 36.5014 6.44429 36.6162 6.21449L38.0712 3.30461L48.6669 10.1164C49.1768 10.4455 49.6026 10.8894 49.9103 11.4126C50.218 11.9357 50.399 12.5236 50.4388 13.1292L53.0981 54.791C53.118 55.102 53.0714 55.4137 52.9614 55.7053C52.8515 55.9969 52.6807 56.2618 52.4604 56.4822Z" fill="url(#paint0_linear_0_236)"/>
<defs>
<linearGradient id="paint0_linear_0_236" x1="28.0002" y1="5.94179" x2="28.0002" y2="52.3318" gradientUnits="userSpaceOnUse">
<stop stop-color="#EC5937" stop-opacity="0.8"/>
<stop offset="0.129" stop-color="#EC5937" stop-opacity="0.8"/>
<stop offset="0.343" stop-color="#EC5937" stop-opacity="0.8"/>
<stop offset="0.616" stop-color="#2A2163"/>
<stop offset="0.934" stop-color="#2A2163"/>
<stop offset="1" stop-color="#2A2163"/>
</linearGradient>
</defs>
</svg>
