<svg width="81" height="40" viewBox="0 0 81 40" fill="none" xmlns="http://www.w3.org/2000/svg">
<path d="M80.3435 27.4465C80.3352 24.6115 78.7497 22.6211 75.6313 21.5314C73.1577 20.6671 70.0112 20.4204 66.6799 20.1593C64.6449 19.9997 62.5405 19.8347 60.6408 19.518C56.8332 18.8834 50.6783 15.4436 45.2478 12.4088C44.8302 12.1755 44.417 11.9448 44.0083 11.7167C42.7825 10.8853 41.2329 9.01431 39.7336 7.20274C38.1798 5.32544 36.5731 3.38438 34.9623 2.08763C32.7795 0.330687 30.8204 0.00828356 29.1388 1.12939C25.9332 3.26634 25.4888 6.44637 25.7625 8.39872C25.5311 8.59661 25.3068 8.79583 25.0882 8.9914C23.5636 10.3542 22.2478 11.5313 19.2497 11.5313C15.2934 11.5313 12.9174 7.36278 11.8532 4.87802C11.5133 4.0837 10.888 3.44565 10.1007 3.08981C9.31342 2.73396 8.42133 2.68619 7.60052 2.95592C6.77971 3.22564 6.08984 3.79327 5.66706 4.54675C5.24429 5.30023 5.11934 6.18483 5.31687 7.02594C6.63769 12.4442 4.98816 22.6669 4.70261 24.3414L0.845235 30.7698C0.692773 31.0238 0.629567 31.3214 0.665664 31.6154C0.70176 31.9093 0.835088 32.1828 1.04445 32.3923C3.80596 35.1537 8.47747 36.9533 14.9297 37.741C20.019 38.3622 24.9818 38.201 27.3667 38.1242C27.888 38.1076 28.3001 38.0938 28.5454 38.0938C31.2454 38.0938 34.2194 38.3212 37.6629 38.5847C42.5392 38.9571 48.6064 39.4219 56.4372 39.4219C78.6048 39.4219 80.2731 28.1149 80.3332 27.6335C80.3401 27.5788 80.3435 27.5238 80.3435 27.4688C80.3435 27.4663 80.3435 27.464 80.3435 27.4615C80.3435 27.4565 80.3435 27.4522 80.3435 27.4465ZM30.6115 3.33939C32.0446 2.3838 34.6444 5.25189 36.9286 7.98401C34.6108 6.90109 32.6494 6.21877 31.2029 6.21877C30.243 6.20825 29.2899 6.38107 28.3949 6.72794C28.5327 5.68885 29.0546 4.37732 30.6115 3.33939ZM74.6349 31.9439C72.0633 34.1434 66.8187 36.7657 56.4372 36.7657C48.7079 36.7657 42.6966 36.3056 37.8667 35.9356C34.3688 35.668 31.348 35.4375 28.5466 35.4375C28.2574 35.4375 27.8266 35.4515 27.2812 35.4691C22.832 35.6135 9.6849 36.0403 3.68609 31.198L6.75539 26.0824C9.67378 25.8682 21.4606 25.1786 28.1266 27.4007C35.9302 30.0018 48.163 32.7813 59.0935 32.7813C66.3636 32.7813 72.9546 30.994 76.5915 29.7804C76.0397 30.5862 75.3815 31.3139 74.6349 31.9436V31.9439ZM23.5691 23.7002L28.5466 18.7219L30.6528 20.8282L27.1242 24.3566C25.951 24.0779 24.7645 23.8588 23.5691 23.7002ZM36.2238 26.983L40.4997 22.7063L42.606 24.8125L39.6343 27.7842C38.4669 27.5282 37.3267 27.2598 36.2238 26.9824V26.983ZM59.0935 30.125C53.736 30.125 48.0486 29.4341 42.7509 28.4242L45.4238 25.7513C45.5471 25.628 45.6449 25.4816 45.7117 25.3205C45.7784 25.1593 45.8128 24.9866 45.8128 24.8122C45.8128 24.6378 45.7784 24.4651 45.7117 24.3039C45.6449 24.1428 45.5471 23.9964 45.4238 23.873L41.4394 19.8887C41.3161 19.7653 41.1696 19.6675 41.0085 19.6007C40.8474 19.534 40.6747 19.4996 40.5002 19.4996C40.3258 19.4996 40.1531 19.534 39.992 19.6007C39.8308 19.6675 39.6844 19.7653 39.5611 19.8887L33.2578 26.192C32.1189 25.8715 31.0349 25.5463 30.0163 25.2214L33.4706 21.767C33.594 21.6436 33.6918 21.4972 33.7586 21.3361C33.8253 21.1749 33.8597 21.0022 33.8597 20.8278C33.8597 20.6534 33.8253 20.4807 33.7586 20.3196C33.6918 20.1584 33.594 20.012 33.4706 19.8887L29.4863 15.9043C29.3629 15.781 29.2165 15.6831 29.0554 15.6164C28.8942 15.5496 28.7215 15.5153 28.5471 15.5153C28.3727 15.5153 28.2 15.5496 28.0388 15.6164C27.8777 15.6831 27.7313 15.781 27.608 15.9043L20.1638 23.3483C15.1355 22.9795 10.1053 23.1989 7.55177 23.3625C8.09398 19.7974 9.13157 11.4592 7.89758 6.3969C7.85731 6.20319 7.89054 6.00142 7.99081 5.83086C8.09108 5.6603 8.25122 5.53314 8.44006 5.47412C8.62891 5.41509 8.83296 5.42844 9.01251 5.51155C9.19206 5.59466 9.33427 5.74159 9.41148 5.92376C12.4909 13.1139 16.8973 14.1875 19.2497 14.1875C23.2623 14.1875 25.2562 12.4042 26.8582 10.9713C28.1678 9.80006 29.2019 8.87502 31.2029 8.87502C31.8656 8.87502 32.8082 9.13981 33.9308 9.58125L31.5918 11.9202L33.4701 13.7985L36.5268 10.742C38.1994 11.558 40.0505 12.5599 41.8875 13.5777L39.5606 15.9046L41.4389 17.7829L44.2995 14.9223C46.0679 15.9103 47.8502 16.903 49.5926 17.8256L47.5293 19.889L49.4076 21.7673L52.0745 19.1006C53.3942 19.754 54.673 20.3419 55.8857 20.8295L54.17 22.5452L56.0483 24.4236L58.6785 21.7935C59.1804 21.9348 59.6894 22.0499 60.2033 22.1383C62.2167 22.4739 64.3798 22.6435 66.4714 22.8074C72.8346 23.3054 76.9169 23.8393 77.5876 26.6035C75.0386 27.5616 67.4383 30.125 59.0935 30.125Z" fill="url(#paint0_linear_0_239)"/>
<defs>
<linearGradient id="paint0_linear_0_239" x1="40.4997" y1="-8.40755" x2="40.4997" y2="49.103" gradientUnits="userSpaceOnUse">
<stop stop-color="#EC5937" stop-opacity="0.8"/>
<stop offset="0.129" stop-color="#EC5937" stop-opacity="0.8"/>
<stop offset="0.343" stop-color="#EC5937" stop-opacity="0.8"/>
<stop offset="0.616" stop-color="#2A2163" stop-opacity="0.8"/>
<stop offset="0.934" stop-color="#2A2163" stop-opacity="0.804"/>
<stop offset="1" stop-color="#2A2163" stop-opacity="0.8"/>
</linearGradient>
</defs>
</svg>
