<svg width="47" height="74" viewBox="0 0 47 74" fill="none" xmlns="http://www.w3.org/2000/svg">
<path d="M46.9031 11.9954L42.4269 1.09792C42.339 0.883916 42.1957 0.702057 42.0143 0.574376C41.8329 0.446695 41.6212 0.37867 41.4048 0.37854H5.59524C5.37876 0.378527 5.16693 0.446452 4.98541 0.574084C4.80389 0.701716 4.66049 0.883575 4.57257 1.09762L0.0963791 11.9951C0.0326627 12.1498 -0.000178118 12.3174 7.26554e-07 12.4868V16.1193C-0.000411706 17.3902 0.368973 18.6291 1.05577 19.6601C1.74257 20.6912 2.71193 21.4621 3.82639 21.8636C4.94084 22.265 6.14383 22.2767 7.26475 21.8969C8.38568 21.5171 9.36766 20.7651 10.0714 19.7476C10.5919 20.5006 11.2675 21.112 12.0445 21.5331C12.8215 21.9542 13.6786 22.1735 14.5476 22.1735C15.4167 22.1735 16.2737 21.9542 17.0508 21.5331C17.8278 21.112 18.5034 20.5006 19.0238 19.7476C19.5443 20.5006 20.2198 21.112 20.9969 21.5331C21.7739 21.9542 22.631 22.1735 23.5 22.1735C24.369 22.1735 25.2261 21.9542 26.0031 21.5331C26.7802 21.112 27.4557 20.5006 27.9762 19.7476C28.4966 20.5006 29.1722 21.112 29.9492 21.5331C30.7263 21.9542 31.5833 22.1735 32.4524 22.1735C33.3214 22.1735 34.1785 21.9542 34.9555 21.5331C35.7326 21.112 36.4081 20.5006 36.9286 19.7476C37.6323 20.7651 38.6143 21.5171 39.7352 21.8969C40.8562 22.2767 42.0592 22.265 43.1736 21.8636C44.2881 21.4621 45.2574 20.6912 45.9442 19.6601C46.631 18.6291 47.0004 17.3902 47 16.1193V12.4868C47 12.3175 46.9669 12.15 46.9031 11.9954ZM44.159 11.276H37.8262L36.0855 2.8002H40.6774L44.159 11.276ZM11.4665 11.276L13.2071 2.8002H18.8926L18.0223 11.276H11.4665ZM21.1444 2.8002H25.8556L26.7259 11.276H20.2741L21.1444 2.8002ZM28.9777 11.276L28.1074 2.8002H33.7929L35.5335 11.276H28.9777ZM6.32262 2.8002H10.9146L9.17381 11.276H2.84098L6.32262 2.8002ZM5.59524 19.7518C4.70518 19.7507 3.85185 19.3677 3.22248 18.6867C2.59311 18.0057 2.2391 17.0824 2.2381 16.1193V13.6977H8.95238V16.1193C8.95138 17.0824 8.59736 18.0057 7.96799 18.6867C7.33862 19.3677 6.4853 19.7507 5.59524 19.7518ZM14.5476 19.7518C13.6576 19.7507 12.8043 19.3676 12.1749 18.6866C11.5455 18.0056 11.1915 17.0824 11.1905 16.1193V13.6977H17.9048V16.1193C17.9037 17.0824 17.5497 18.0056 16.9203 18.6866C16.291 19.3676 15.4377 19.7507 14.5476 19.7518ZM23.5 19.7518C22.6099 19.7507 21.7566 19.3676 21.1273 18.6866C20.4979 18.0056 20.1439 17.0824 20.1429 16.1193V13.6977H26.8571V16.1193C26.8561 17.0824 26.5021 18.0056 25.8727 18.6866C25.2434 19.3676 24.3901 19.7507 23.5 19.7518ZM32.4524 19.7518C31.5623 19.7507 30.709 19.3676 30.0797 18.6866C29.4503 18.0056 29.0963 17.0824 29.0952 16.1193V13.6977H35.8095V16.1193C35.8085 17.0824 35.4545 18.0056 34.8251 18.6866C34.1957 19.3676 33.3424 19.7507 32.4524 19.7518ZM44.7619 16.1193C44.7619 17.0827 44.4082 18.0066 43.7786 18.6879C43.149 19.3691 42.2951 19.7518 41.4048 19.7518C40.5144 19.7518 39.6605 19.3691 39.0309 18.6879C38.4013 18.0066 38.0476 17.0827 38.0476 16.1193V13.6977H44.7619V16.1193Z" fill="url(#paint0_linear_0_241)"/>
<path d="M22.3806 65.7633H24.6188V68.1849H22.3806V65.7633Z" fill="url(#paint1_linear_0_241)"/>
<path d="M39.1666 66.9741C39.1656 67.9371 38.8116 68.8604 38.1822 69.5414C37.5528 70.2224 36.6995 70.6055 35.8094 70.6065H11.1904C10.3004 70.6055 9.44706 70.2224 8.81769 69.5414C8.18832 68.8604 7.83431 67.9371 7.83331 66.9741V24.5951H5.59521V66.9741C5.59688 68.5792 6.18691 70.118 7.23586 71.253C8.28481 72.388 9.70701 73.0264 11.1904 73.0282H35.8094C37.2929 73.0264 38.7151 72.388 39.764 71.253C40.813 70.118 41.403 68.5792 41.4047 66.9741V24.5951H39.1666V66.9741Z" fill="url(#paint2_linear_0_241)"/>
<path d="M11.1903 33.0708C11.1913 33.8632 11.4314 34.6335 11.874 35.2647C12.3166 35.896 12.9375 36.3536 13.6424 36.5682L15.6999 45.4728C15.7604 45.7348 15.9002 45.9674 16.0969 46.1335C16.2936 46.2997 16.536 46.39 16.7855 46.39H30.2141C30.4637 46.39 30.7061 46.2997 30.9028 46.1335C31.0995 45.9674 31.2392 45.7348 31.2997 45.4728L33.3572 36.5682C34.1379 36.3311 34.8129 35.7963 35.2575 35.0625C35.7021 34.3288 35.8862 33.4458 35.7759 32.5766C35.6656 31.7074 35.2682 30.9107 34.6573 30.3339C34.0463 29.757 33.2631 29.4389 32.4522 29.4383H29.7866L31.215 26.3474L29.2133 25.2643L27.2844 29.4383H19.7152L17.7864 25.2643L15.7847 26.3474L17.213 29.4383H14.5474C13.6574 29.4395 12.8041 29.8225 12.1747 30.5035C11.5454 31.1845 11.1913 32.1078 11.1903 33.0708ZM31.019 36.7033L30.4595 39.125H27.565L27.8448 36.7033H31.019ZM25.3096 39.125H21.69L21.4103 36.7033H25.5894L25.3096 39.125ZM25.0298 41.5467L24.7501 43.9683H22.2496L21.9698 41.5467H25.0298ZM19.1548 36.7033L19.4346 39.125H16.5402L15.9807 36.7033H19.1548ZM17.0997 41.5467H19.7144L19.9941 43.9683H17.6592L17.0997 41.5467ZM27.0055 43.9683L27.2853 41.5467H29.8999L29.3404 43.9683H27.0055ZM33.5712 33.0708C33.5709 33.3919 33.4529 33.6996 33.2431 33.9266C33.0333 34.1536 32.7489 34.2813 32.4522 34.2817H14.5474C14.2507 34.2817 13.966 34.1541 13.7562 33.927C13.5463 33.7 13.4284 33.392 13.4284 33.0708C13.4284 32.7497 13.5463 32.4417 13.7562 32.2146C13.966 31.9876 14.2507 31.86 14.5474 31.86H32.4522C32.7489 31.8604 33.0333 31.988 33.2431 32.215C33.4529 32.442 33.5709 32.7498 33.5712 33.0708Z" fill="url(#paint3_linear_0_241)"/>
<path d="M13.4282 54.8657H33.5712V57.2875H13.4282V54.8657Z" fill="url(#paint4_linear_0_241)"/>
<path d="M13.4282 59.7091H33.5712V62.1309H13.4282V59.7091Z" fill="url(#paint5_linear_0_241)"/>
<path d="M20.1427 50.0225H33.5713V52.4441H20.1427V50.0225Z" fill="url(#paint6_linear_0_241)"/>
<path d="M15.6669 50.0225H17.905V52.4441H15.6669V50.0225Z" fill="url(#paint7_linear_0_241)"/>
<defs>
<linearGradient id="paint0_linear_0_241" x1="23.5" y1="0.37854" x2="23.5" y2="22.1735" gradientUnits="userSpaceOnUse">
<stop stop-color="#EC5937"/>
<stop offset="1" stop-color="#223366"/>
</linearGradient>
<linearGradient id="paint1_linear_0_241" x1="23.4997" y1="65.7633" x2="23.4997" y2="68.1849" gradientUnits="userSpaceOnUse">
<stop stop-color="#EC5937"/>
<stop offset="1" stop-color="#223366"/>
</linearGradient>
<linearGradient id="paint2_linear_0_241" x1="23.4999" y1="24.5951" x2="23.4999" y2="73.0282" gradientUnits="userSpaceOnUse">
<stop stop-color="#EC5937"/>
<stop offset="1" stop-color="#223366"/>
</linearGradient>
<linearGradient id="paint3_linear_0_241" x1="23.4987" y1="25.2643" x2="23.4987" y2="46.39" gradientUnits="userSpaceOnUse">
<stop stop-color="#EC5937"/>
<stop offset="1" stop-color="#223366"/>
</linearGradient>
<linearGradient id="paint4_linear_0_241" x1="23.4997" y1="54.8657" x2="23.4997" y2="57.2875" gradientUnits="userSpaceOnUse">
<stop stop-color="#EC5937"/>
<stop offset="1" stop-color="#223366"/>
</linearGradient>
<linearGradient id="paint5_linear_0_241" x1="23.4997" y1="59.7091" x2="23.4997" y2="62.1309" gradientUnits="userSpaceOnUse">
<stop stop-color="#EC5937"/>
<stop offset="1" stop-color="#223366"/>
</linearGradient>
<linearGradient id="paint6_linear_0_241" x1="3780.15" y1="82.2326" x2="3780.15" y2="1062.94" gradientUnits="userSpaceOnUse">
<stop stop-color="#EC5937" stop-opacity="0.8"/>
<stop offset="0.129" stop-color="#EC5937" stop-opacity="0.8"/>
<stop offset="0.343" stop-color="#EC5937" stop-opacity="0.8"/>
<stop offset="0.616" stop-color="#2A2163" stop-opacity="0.8"/>
<stop offset="0.934" stop-color="#2A2163" stop-opacity="0.8"/>
<stop offset="1" stop-color="#2A2163" stop-opacity="0.8"/>
</linearGradient>
<linearGradient id="paint7_linear_0_241" x1="481.204" y1="82.2326" x2="481.204" y2="1062.94" gradientUnits="userSpaceOnUse">
<stop stop-color="#EC5937" stop-opacity="0.8"/>
<stop offset="0.129" stop-color="#EC5937" stop-opacity="0.8"/>
<stop offset="0.343" stop-color="#EC5937" stop-opacity="0.8"/>
<stop offset="0.616" stop-color="#2A2163" stop-opacity="0.8"/>
<stop offset="0.934" stop-color="#2A2163" stop-opacity="0.8"/>
<stop offset="1" stop-color="#2A2163" stop-opacity="0.8"/>
</linearGradient>
</defs>
</svg>
